<?xml version="1.0" encoding="UTF-8" standalone="no"?>
<!DOCTYPE svg  PUBLIC '-//W3C//DTD SVG 1.1//EN'  'http://www.w3.org/Graphics/SVG/1.1/DTD/svg11.dtd'>
<svg xmlns="http://www.w3.org/2000/svg">
<defs>
<font id="Calibre-Regular" horiz-adv-x="209">
<font-face underline-position="-40" font-weight="400" descent="-200" panose-1="2 11 5 3 3 2 2 6 2 3" units-per-em="1000" unicode-range="U+0020-0237" bbox="-42 -201 811 894" x-height="444" underline-thickness="30" font-family="Calibre Regular" ascent="800" cap-height="614"/>
<missing-glyph horiz-adv-x="1000"/>
<glyph glyph-name=".notdef" horiz-adv-x="1000"/>
<glyph glyph-name=".null" horiz-adv-x="0"/>
<glyph glyph-name="nonmarkingreturn" horiz-adv-x="333"/>
<glyph glyph-name="space" horiz-adv-x="221" unicode=" "/>
<glyph glyph-name="exclam" horiz-adv-x="203" unicode="!" d="M74 193l-17 421h89l-18 -421h-54zM48 49q0 23 15.5 39t37.5 16q23 0 38.5 -16t15.5 -39t-15.5 -38.5t-38.5 -15.5q-22 0 -37.5 15.5t-15.5 38.5z"/>
<glyph glyph-name="quotedbl" horiz-adv-x="265" unicode='&quot;' d="M159 395v219h66v-219h-66zM40 395v219h66v-219h-66z"/>
<glyph glyph-name="numbersign" horiz-adv-x="576" unicode="#" d="M234 379l-34 -144h141l34 144h-141zM511 235l-12 -59h-104l-42 -176h-68l42 176h-141l-42 -176h-67l42 176h-96l13 59h97l34 144h-102l12 59h104l42 176h68l-43 -176h141l43 176h67l-42 -176h95l-12 -59h-97l-34 -144h102z"/>
<glyph glyph-name="dollar" horiz-adv-x="477" unicode="$" d="M210 -89v99q-72 8 -120.5 48.5t-62.5 107.5h76q32 -92 143 -92q57 0 92 26.5t35 72.5q0 68 -91 91l-102 27q-139 35 -139 152q0 68 47 112.5t122 49.5v90h69v-93q129 -22 160 -149h-74q-29 88 -136 88q-52 0 -84 -25t-32 -69q0 -36 22.5 -56t69.5 -33l97 -25 q142 -37 142 -157q0 -70 -45.5 -114t-119.5 -52v-99h-69z"/>
<glyph glyph-name="percent" horiz-adv-x="642" unicode="%" d="M550 124q0 31 -21.5 52.5t-52.5 21.5t-53 -21.5t-22 -52.5t22 -53t53 -22t52.5 22t21.5 53zM299 490q0 -56 -38.5 -94.5t-94.5 -38.5t-94.5 38.5t-38.5 94.5t38.5 94.5t94.5 38.5t94.5 -38.5t38.5 -94.5zM609 124q0 -56 -38.5 -94.5t-94.5 -38.5t-94.5 38.5t-38.5 94.5 t38.5 94.5t94.5 38.5t94.5 -38.5t38.5 -94.5zM92 490q0 -31 21.5 -52.5t52.5 -21.5t53 21.5t22 52.5t-22 53t-53 22t-52.5 -22t-21.5 -53zM99 0l383 614h62l-383 -614h-62z"/>
<glyph glyph-name="ampersand" horiz-adv-x="585" unicode="&amp;" d="M238 54q82 0 134 55l-179 191q-36 -14 -59 -47t-23 -74q0 -55 35.5 -90t91.5 -35zM434 474h-75q-2 39 -25.5 63.5t-63.5 24.5q-41 0 -68 -25t-27 -67q0 -21 11 -43t21 -34t34 -38l172 -183q26 60 29 136h70q-3 -104 -53 -186l115 -122h-99l-61 64q-73 -73 -176 -73 q-87 0 -143 53t-56 135q0 54 31 99t81 69q-49 60 -49 121q0 71 47.5 113t120.5 42q75 0 118 -42t46 -107z"/>
<glyph glyph-name="quotesingle" horiz-adv-x="148" unicode="&apos;" d="M40 395v219h68v-219h-68z"/>
<glyph glyph-name="parenleft" horiz-adv-x="321" unicode="(" d="M30 283q0 137 72.5 236t195.5 131v-80q-84 -21 -138.5 -98t-54.5 -189t54.5 -189t138.5 -98v-80q-123 32 -195.5 131t-72.5 236z"/>
<glyph glyph-name="parenright" horiz-adv-x="321" unicode=")" d="M291 283q0 -137 -72.5 -236t-195.5 -131v80q84 21 138.5 98t54.5 189t-54.5 189t-138.5 98v80q123 -32 195.5 -131t72.5 -236z"/>
<glyph glyph-name="asterisk" horiz-adv-x="332" unicode="*" d="M121 506l-90 53l22 38l91 -52v104h44v-104l91 52l22 -38l-91 -53l91 -52l-22 -38l-91 52v-105h-44v105l-91 -52l-22 38z"/>
<glyph glyph-name="plus" horiz-adv-x="540" unicode="+" d="M239 494h62v-166h166v-62h-166v-166h-62v166h-166v62h166v166z"/>
<glyph glyph-name="comma" horiz-adv-x="171" unicode="," d="M13 -107l63 106q-44 7 -44 50q0 23 15.5 38t38.5 15t38 -15.5t15 -42.5q0 -28 -22 -63l-53 -88h-51z"/>
<glyph glyph-name="hyphen" horiz-adv-x="321" unicode="-" d="M40 226v70h241v-70h-241z"/>
<glyph glyph-name="period" horiz-adv-x="171" unicode="." d="M32 49q0 23 15.5 39t38.5 16q22 0 37.5 -16t15.5 -39t-15.5 -38.5t-37.5 -15.5q-23 0 -38.5 15.5t-15.5 38.5z"/>
<glyph glyph-name="slash" horiz-adv-x="333" unicode="/" d="M5 -84l248 734h75l-248 -734h-75z"/>
<glyph glyph-name="zero" horiz-adv-x="538" unicode="0" d="M269 552q-73 0 -112.5 -67t-39.5 -178t39.5 -178t112.5 -67q72 0 112 67.5t40 177.5t-40 177.5t-112 67.5zM269 -9q-102 0 -165.5 87.5t-63.5 228.5t63.5 228.5t165.5 87.5t165.5 -87.5t63.5 -228.5t-63.5 -228.5t-165.5 -87.5z"/>
<glyph glyph-name="one" horiz-adv-x="329" unicode="1" d="M254 615v-615h-77v520l-152 -78v80l182 93h47z"/>
<glyph glyph-name="two" horiz-adv-x="457" unicode="2" d="M341 449q0 47 -30 75.5t-81 28.5q-54 0 -84.5 -33.5t-35.5 -89.5h-81q9 87 63 140t138 53q87 0 137 -47t50 -126q0 -14 -3.5 -29t-7 -26t-13 -27.5t-14.5 -24.5t-20 -26l-20 -24t-23.5 -26.5t-22.5 -25.5l-156 -171h293v-70h-401v52l198 218q45 50 61 68t34.5 51t18.5 60 z"/>
<glyph glyph-name="three" horiz-adv-x="460" unicode="3" d="M184 281v67h41q50 0 82.5 27.5t32.5 75.5q0 45 -30.5 74.5t-81.5 29.5t-83 -30t-39 -79h-77q11 79 65 128t134 49q86 0 136.5 -46.5t50.5 -121.5q0 -50 -26.5 -88.5t-69.5 -51.5q50 -14 79 -52.5t29 -90.5q0 -78 -53.5 -129.5t-143.5 -51.5t-147.5 50t-65.5 134h77 q8 -54 43 -85t92 -31q55 0 89 30.5t34 81.5q0 50 -35.5 80t-89.5 30h-43z"/>
<glyph glyph-name="four" horiz-adv-x="509" unicode="4" d="M338 614l-229 -409h196v148h73v-148h108v-66h-108v-139h-73v139h-283v56l236 419h80z"/>
<glyph glyph-name="five" horiz-adv-x="469" unicode="5" d="M237 330q-65 0 -109 -53h-62v337h336v-70h-270v-185q43 39 112 39q85 0 139 -57.5t54 -146.5q0 -87 -56 -145t-143 -58q-88 0 -144 49t-67 135h77q21 -116 134 -116q55 0 90 38.5t35 96.5t-35 97t-91 39z"/>
<glyph glyph-name="six" horiz-adv-x="500" unicode="6" d="M456 471h-78q-28 87 -113 87q-67 0 -111 -67.5t-44 -167.5q0 -3 0.5 -13.5t0.5 -13.5q15 47 58 76t97 29q87 0 143 -59.5t56 -144.5q0 -87 -57 -146.5t-149 -59.5q-125 0 -183 117q-36 76 -36 188q0 148 62.5 237.5t162.5 89.5q152 0 191 -152zM127 196q0 -60 37 -99 t96 -39q58 0 95 38.5t37 99.5t-37 100.5t-95 39.5q-59 0 -96 -39t-37 -101z"/>
<glyph glyph-name="seven" horiz-adv-x="440" unicode="7" d="M415 553l-219 -553h-79l217 544h-316v70h397v-61z"/>
<glyph glyph-name="eight" horiz-adv-x="487" unicode="8" d="M243 -9q-90 0 -149.5 49t-59.5 127q0 58 33.5 100t86.5 56q-44 15 -71 52t-27 86q0 73 53.5 117.5t133.5 44.5q81 0 134.5 -44.5t53.5 -117.5q0 -49 -27.5 -85.5t-70.5 -52.5q52 -14 86 -56t34 -100q0 -78 -59.5 -127t-150.5 -49zM243 356q49 0 81 28t32 73t-32 73.5 t-81 28.5q-48 0 -80 -28.5t-32 -73.5q0 -44 32 -72.5t80 -28.5zM243 55q59 0 96.5 33t37.5 85t-37.5 84.5t-96.5 32.5q-58 0 -95.5 -32.5t-37.5 -84.5t37.5 -85t95.5 -33z"/>
<glyph glyph-name="nine" horiz-adv-x="500" unicode="9" d="M44 143h78q28 -87 113 -87q67 0 111 67.5t44 167.5q0 3 -0.5 13.5t-0.5 13.5q-15 -47 -58 -76t-97 -29q-87 0 -143 59.5t-56 144.5q0 87 57 146.5t149 59.5q125 0 183 -117q36 -76 36 -188q0 -148 -62.5 -237.5t-162.5 -89.5q-152 0 -191 152zM373 418q0 60 -37 99 t-96 39q-58 0 -95 -38.5t-37 -99.5t37 -100.5t95 -39.5q59 0 96 39t37 101z"/>
<glyph glyph-name="colon" horiz-adv-x="171" unicode=":" d="M32 363q0 23 15.5 39t38.5 16q22 0 37.5 -16t15.5 -39t-15.5 -38.5t-37.5 -15.5q-23 0 -38.5 15.5t-15.5 38.5zM32 49q0 23 15.5 39t38.5 16q22 0 37.5 -16t15.5 -39t-15.5 -38.5t-37.5 -15.5q-23 0 -38.5 15.5t-15.5 38.5z"/>
<glyph glyph-name="semicolon" horiz-adv-x="171" unicode=";" d="M32 363q0 23 15.5 39t38.5 16q22 0 37.5 -16t15.5 -39t-15.5 -38.5t-37.5 -15.5q-23 0 -38.5 15.5t-15.5 38.5zM13 -107l63 106q-44 7 -44 50q0 23 15.5 38t38.5 15t38 -15.5t15 -42.5q0 -28 -22 -63l-53 -88h-51z"/>
<glyph glyph-name="less" horiz-adv-x="423" unicode="&lt;" d="M62 256v78l296 151v-71l-238 -119l238 -119v-71z"/>
<glyph glyph-name="equal" horiz-adv-x="551" unicode="=" d="M79 337v60h394v-60h-394zM79 199v58h394v-58h-394z"/>
<glyph glyph-name="greater" horiz-adv-x="423" unicode="&gt;" d="M362 334v-78l-297 -151v71l238 119l-238 119v71z"/>
<glyph glyph-name="question" horiz-adv-x="432" unicode="?" d="M408 451q0 -12 -1.5 -23.5t-6.5 -23.5t-7.5 -20t-12 -21t-12 -18t-15.5 -19.5t-14.5 -16.5t-16.5 -18l-16 -16q-41 -44 -43 -82h-74q2 36 14.5 61t43.5 59q5 6 26.5 28.5t30.5 34t18.5 32.5t9.5 42q0 47 -30 75t-81 28q-53 0 -84 -33.5t-36 -89.5h-81q9 87 63.5 140 t137.5 53q87 0 137 -46.5t50 -125.5zM170 49q0 23 15.5 39t37.5 16q23 0 38.5 -16t15.5 -39t-15.5 -38.5t-38.5 -15.5q-22 0 -37.5 15.5t-15.5 38.5z"/>
<glyph glyph-name="at" horiz-adv-x="774" unicode="@" d="M450 151l23 124q-9 23 -28.5 38t-45.5 15q-52 0 -84.5 -44.5t-32.5 -101.5q0 -40 20.5 -64.5t56.5 -24.5q53 0 91 58zM560 381l-43 -243q-2 -12 -2 -17q0 -37 42 -37q55 0 90 50t35 137q0 108 -76 173.5t-195 65.5q-140 0 -228.5 -91t-88.5 -231q0 -76 28 -134 t75.5 -89.5t101 -47t113.5 -15.5q116 0 217 46v-57q-94 -45 -217 -45q-60 0 -114.5 12.5t-103 39t-84.5 66t-57 97t-21 127.5q0 160 106 269t273 109q146 0 238.5 -84t92.5 -211q0 -115 -57.5 -178t-137.5 -63q-36 0 -63 15.5t-37 42.5q-15 -25 -43.5 -41t-58.5 -16 q-61 0 -96.5 42t-35.5 106q0 85 51.5 148t130.5 63q63 0 91 -46l7 37h67z"/>
<glyph glyph-name="A" horiz-adv-x="596" unicode="A" d="M297 516l-100 -262h200zM261 614h74l240 -614h-80l-71 185h-253l-70 -185h-80z"/>
<glyph glyph-name="B" horiz-adv-x="538" unicode="B" d="M150 281v-212h145q61 0 94 28.5t33 77.5q0 50 -33 78t-94 28h-145zM150 347h125q127 0 127 100q0 98 -127 98h-125v-198zM388 318q49 -13 80 -53t31 -92q0 -83 -54 -128t-150 -45h-222v614h202q96 0 149.5 -42t53.5 -121q0 -52 -25.5 -86.5t-64.5 -46.5z"/>
<glyph glyph-name="C" horiz-adv-x="586" unicode="C" d="M37 307q0 141 78.5 228.5t196.5 87.5q95 0 157.5 -51t81.5 -138h-78q-42 118 -161 118q-88 0 -142 -67.5t-54 -177.5q0 -109 54 -177t142 -68q120 0 161 119h78q-19 -88 -81.5 -139t-157.5 -51q-118 0 -196.5 87.5t-78.5 228.5z"/>
<glyph glyph-name="D" horiz-adv-x="605" unicode="D" d="M73 0v614h197q135 0 216.5 -83.5t81.5 -223.5t-81.5 -223.5t-216.5 -83.5h-197zM152 71h117q104 0 162.5 63.5t58.5 172.5t-59 173t-162 64h-117v-473z"/>
<glyph glyph-name="E" horiz-adv-x="515" unicode="E" d="M73 614h391v-70h-313v-194h284v-70h-284v-209h313v-71h-391v614z"/>
<glyph glyph-name="F" horiz-adv-x="485" unicode="F" d="M152 0h-79v614h375v-70h-296v-207h278v-70h-278v-267z"/>
<glyph glyph-name="G" horiz-adv-x="610" unicode="G" d="M498 235h-147v68h222v-42q0 -122 -70.5 -196t-183.5 -74q-122 0 -202 87t-80 229q0 141 80 228.5t200 87.5q96 0 159.5 -51t82.5 -138h-79q-43 118 -163 118q-90 0 -145.5 -67.5t-55.5 -177.5t56 -178t147 -68q79 0 125.5 46.5t53.5 127.5z"/>
<glyph glyph-name="H" horiz-adv-x="651" unicode="H" d="M499 614h79v-614h-79v280h-347v-280h-79v614h79v-263h347v263z"/>
<glyph glyph-name="I" horiz-adv-x="225" unicode="I" d="M152 614v-614h-79v614h79z"/>
<glyph glyph-name="J" horiz-adv-x="479" unicode="J" d="M17 174h81q6 -52 37 -81.5t82 -29.5q122 0 122 141v410h79v-410q0 -104 -54.5 -158.5t-145.5 -54.5q-89 0 -142 50t-59 133z"/>
<glyph glyph-name="K" horiz-adv-x="564" unicode="K" d="M152 614v-307l286 307h100l-263 -280l272 -334h-98l-231 280l-66 -71v-209h-79v614h79z"/>
<glyph glyph-name="L" horiz-adv-x="504" unicode="L" d="M73 0v614h79v-543h313v-71h-392z"/>
<glyph glyph-name="M" horiz-adv-x="736" unicode="M" d="M396 0h-54l-194 468v-468h-75v614h89l208 -504l207 504h86v-614h-75v468z"/>
<glyph glyph-name="N" horiz-adv-x="623" unicode="N" d="M550 614v-614h-58l-343 488v-488h-76v614h75l327 -467v467h75z"/>
<glyph glyph-name="O" horiz-adv-x="629" unicode="O" d="M513 307q0 108 -55 176.5t-144 68.5q-88 0 -143 -68.5t-55 -176.5t55 -176.5t143 -68.5q89 0 144 68.5t55 176.5zM592 307q0 -139 -78 -227.5t-200 -88.5q-121 0 -199 88.5t-78 227.5t78 227.5t199 88.5q122 0 200 -88.5t78 -227.5z"/>
<glyph glyph-name="P" horiz-adv-x="537" unicode="P" d="M427 430q0 54 -32.5 84.5t-93.5 30.5h-149v-229h149q61 0 93.5 30.5t32.5 83.5zM303 246h-151v-246h-79v614h230q95 0 148.5 -47.5t53.5 -136.5t-54 -136.5t-148 -47.5z"/>
<glyph glyph-name="Q" horiz-adv-x="628" unicode="Q" d="M513 307q0 108 -55 176.5t-144 68.5q-88 0 -143 -68.5t-55 -176.5t55 -176.5t143 -68.5q53 0 92 21l-52 66l54 40l50 -64q55 66 55 182zM500 -36l-50 63q-63 -36 -136 -36q-121 0 -199 88.5t-78 227.5t78 227.5t199 88.5q122 0 200 -88.5t78 -227.5q0 -147 -89 -238 l51 -64z"/>
<glyph glyph-name="R" horiz-adv-x="552" unicode="R" d="M152 545v-218h147q60 0 92.5 29t32.5 80t-32.5 80t-92.5 29h-147zM261 260h-109v-260h-79v614h228q94 0 147.5 -46t53.5 -132q0 -75 -41 -119t-115 -54l181 -263h-90z"/>
<glyph glyph-name="S" horiz-adv-x="509" unicode="S" d="M23 160h80q35 -102 156 -102q61 0 98.5 28.5t37.5 78.5q0 37 -23 60.5t-75 36.5l-110 29q-147 38 -147 158q0 77 57 125.5t145 48.5q93 0 150 -43.5t75 -118.5h-79q-33 95 -146 95q-56 0 -91.5 -27.5t-35.5 -73.5q0 -38 24 -59.5t74 -34.5l105 -27q153 -39 153 -165 q0 -82 -59.5 -130t-152.5 -48t-156 44.5t-80 124.5z"/>
<glyph glyph-name="T" horiz-adv-x="567" unicode="T" d="M30 544v70h507v-70h-214v-544h-79v544h-214z"/>
<glyph glyph-name="U" horiz-adv-x="607" unicode="U" d="M303 -9q-108 0 -174 65t-66 188v370h78v-361q0 -96 43 -144t119 -48t119 48t43 144v361h79v-371q0 -122 -66 -187t-175 -65z"/>
<glyph glyph-name="V" horiz-adv-x="590" unicode="V" d="M332 0h-74l-237 614h83l192 -510l193 510h80z"/>
<glyph glyph-name="W" horiz-adv-x="767" unicode="W" d="M353 614h63l130 -488l126 488h76l-163 -614h-72l-129 479l-131 -479h-71l-163 614h78l126 -488z"/>
<glyph glyph-name="X" horiz-adv-x="557" unicode="X" d="M532 614l-209 -300l218 -314h-90l-174 250l-173 -250h-87l217 312l-209 302h90l164 -239l166 239h87z"/>
<glyph glyph-name="Y" horiz-adv-x="557" unicode="Y" d="M280 324l177 290h84l-224 -361v-253h-78v253l-222 361h86z"/>
<glyph glyph-name="Z" horiz-adv-x="534" unicode="Z" d="M492 71v-71h-451v57l349 487h-344v70h442v-56l-348 -487h352z"/>
<glyph glyph-name="bracketleft" horiz-adv-x="313" unicode="[" d="M145 582v-598h145v-68h-217v734h217v-68h-145z"/>
<glyph glyph-name="backslash" horiz-adv-x="333" unicode="\" d="M80 650l248 -734h-75l-248 734h75z"/>
<glyph glyph-name="bracketright" horiz-adv-x="313" unicode="]" d="M168 -16v598h-145v68h217v-734h-217v68h145z"/>
<glyph glyph-name="asciicircum" horiz-adv-x="357" unicode="^" d="M142 614h74l124 -194h-78l-83 128l-83 -128h-79z"/>
<glyph glyph-name="underscore" horiz-adv-x="367" unicode="_" d="M20 -110v68h327v-68h-327z"/>
<glyph glyph-name="grave" horiz-adv-x="500" unicode="`" d="M329 516h-69l-89 134h78z"/>
<glyph glyph-name="a" horiz-adv-x="450" unicode="a" d="M317 110v46q-10 24 -39.5 39.5t-64.5 15.5q-44 0 -75 -20t-31 -57q0 -38 31 -58.5t75 -20.5q35 0 64.5 15.5t39.5 39.5zM389 0h-72v33q-14 -15 -47 -28t-70 -13q-70 0 -117.5 39t-47.5 103q0 61 49 100t121 39q33 0 65 -11t47 -25v56q0 43 -25.5 69t-72.5 26 q-70 0 -91 -61h-74q11 56 56.5 91t109.5 35q79 0 124 -42t45 -115v-296z"/>
<glyph glyph-name="b" horiz-adv-x="502" unicode="b" d="M142 312v-180q17 -34 47.5 -53.5t66.5 -19.5q62 0 98.5 45.5t36.5 117.5t-36.5 117.5t-98.5 45.5q-36 0 -66.5 -19.5t-47.5 -53.5zM142 52v-52h-76v650h76v-258q18 26 52 43.5t73 17.5q94 0 147 -66.5t53 -164.5q0 -99 -53 -165t-147 -66q-39 0 -73 17.5t-52 43.5z"/>
<glyph glyph-name="c" horiz-adv-x="446" unicode="c" d="M35 222q0 103 56 167t146 64q73 0 119.5 -39t58.5 -104h-77q-8 36 -34.5 56.5t-66.5 20.5q-57 0 -91.5 -46t-34.5 -119t34.5 -119t91.5 -46q40 0 66.5 20.5t34.5 56.5h77q-12 -65 -58.5 -104t-119.5 -39q-90 0 -146 64t-56 167z"/>
<glyph glyph-name="d" horiz-adv-x="502" unicode="d" d="M360 132v180q-17 34 -47.5 53.5t-66.5 19.5q-62 0 -98.5 -45.5t-36.5 -117.5t36.5 -117.5t98.5 -45.5q36 0 66.5 19.5t47.5 53.5zM360 0v52q-18 -26 -52 -43.5t-73 -17.5q-94 0 -147 66t-53 165q0 98 53 164.5t147 66.5q39 0 73 -17.5t52 -43.5v258h76v-650h-76z"/>
<glyph glyph-name="e" horiz-adv-x="457" unicode="e" d="M238 389q-50 0 -84 -33t-42 -91h236q-1 53 -29 88.5t-81 35.5zM347 133h71q-12 -65 -59 -103.5t-120 -38.5q-91 0 -147.5 63.5t-56.5 166.5q0 101 56 166.5t146 65.5q89 0 138 -59.5t49 -158.5v-27h-314q1 -70 36.5 -111.5t92.5 -41.5q42 0 70.5 20.5t37.5 57.5z"/>
<glyph glyph-name="f" horiz-adv-x="289" unicode="f" d="M289 649v-68q-19 12 -47 12q-34 0 -53.5 -21t-19.5 -60v-68h100v-64h-100v-380h-74v380h-75v64h75v74q0 65 38 103t98 38q34 0 58 -10z"/>
<glyph glyph-name="g" horiz-adv-x="501" unicode="g" d="M358 140v177q-38 69 -113 69q-62 0 -97.5 -44t-35.5 -114t35.5 -113.5t97.5 -43.5q75 0 113 69zM358 30v33q-18 -25 -51.5 -42.5t-72.5 -17.5q-93 0 -146 66t-53 159q0 94 53 159.5t146 65.5q39 0 72.5 -17t51.5 -42v50h76v-409q0 -106 -54.5 -160.5t-143.5 -54.5 q-80 0 -129.5 39t-60.5 108h74q19 -83 116 -83q122 0 122 146z"/>
<glyph glyph-name="h" horiz-adv-x="489" unicode="h" d="M67 0v650h75v-262q21 28 55.5 46.5t75.5 18.5q74 0 115 -44t41 -118v-291h-76v279q0 48 -24.5 76.5t-73.5 28.5q-39 0 -70 -23.5t-43 -59.5v-301h-75z"/>
<glyph glyph-name="i" d="M153 578q0 -20 -14.5 -34t-34.5 -14t-34 14t-14 34t14 34t34 14t34.5 -14t14.5 -34zM142 444v-444h-75v444h75z" unicode="i"/>
<glyph glyph-name="j" horiz-adv-x="207" unicode="j" d="M153 578q0 -20 -14.5 -34t-34.5 -14t-34 14t-14 34t14 34t34 14t34.5 -14t14.5 -34zM142 444v-495q0 -62 -33.5 -95t-95.5 -33q-21 0 -32 4v64q18 -3 26 -3q60 0 60 68v490h75z"/>
<glyph glyph-name="k" horiz-adv-x="464" unicode="k" d="M359 0l-169 205l-48 -46v-159h-75v650h75v-403l203 197h99l-200 -192l207 -252h-92z"/>
<glyph glyph-name="l" d="M142 650v-650h-75v650h75z" unicode="l"/>
<glyph glyph-name="m" horiz-adv-x="717" unicode="m" d="M382 382q50 71 135 71q67 0 103.5 -43t36.5 -116v-294h-76v282q0 48 -21 75.5t-63 27.5q-34 0 -61 -21.5t-37 -57.5v-306h-75v282q0 48 -21 75.5t-63 27.5q-34 0 -61 -21.5t-37 -57.5v-306h-75v444h75v-52q38 61 120 61q84 0 120 -71z"/>
<glyph glyph-name="n" horiz-adv-x="489" unicode="n" d="M67 0v444h75v-56q21 28 55.5 46.5t75.5 18.5q74 0 115 -44t41 -118v-291h-76v279q0 48 -24.5 76.5t-73.5 28.5q-39 0 -70 -23.5t-43 -59.5v-301h-75z"/>
<glyph glyph-name="o" horiz-adv-x="478" unicode="o" d="M367 222q0 74 -34.5 119.5t-93.5 45.5t-93.5 -45.5t-34.5 -119.5t34.5 -119.5t93.5 -45.5t93.5 45.5t34.5 119.5zM443 222q0 -102 -56.5 -166.5t-147.5 -64.5t-147.5 64.5t-56.5 166.5t56.5 166.5t147.5 64.5t147.5 -64.5t56.5 -166.5z"/>
<glyph glyph-name="p" horiz-adv-x="502" unicode="p" d="M142 312v-180q17 -34 47.5 -53.5t66.5 -19.5q62 0 98.5 45.5t36.5 117.5t-36.5 117.5t-98.5 45.5q-36 0 -66.5 -19.5t-47.5 -53.5zM142 52v-222h-75v614h75v-52q19 26 52.5 43.5t72.5 17.5q94 0 147 -66.5t53 -164.5t-53 -164.5t-147 -66.5q-39 0 -72.5 17.5t-52.5 43.5z "/>
<glyph glyph-name="q" horiz-adv-x="502" unicode="q" d="M360 132v180q-17 34 -47.5 53.5t-66.5 19.5q-62 0 -98.5 -45.5t-36.5 -117.5t36.5 -117.5t98.5 -45.5q36 0 66.5 19.5t47.5 53.5zM360 -170v222q-19 -26 -52.5 -43.5t-72.5 -17.5q-94 0 -147 66.5t-53 164.5t53 164.5t147 66.5q39 0 72.5 -17.5t52.5 -43.5v52h75v-614 h-75z"/>
<glyph glyph-name="r" horiz-adv-x="321" unicode="r" d="M295 446v-77q-18 12 -50 12q-36 0 -64 -22t-39 -61v-298h-75v444h75v-58q15 29 44.5 48t65.5 19q29 0 43 -7z"/>
<glyph glyph-name="s" horiz-adv-x="414" unicode="s" d="M30 122h78q21 -68 105 -68q41 0 66 16.5t25 49.5q0 45 -66 62l-88 23q-107 27 -107 117q0 58 45 94.5t114 36.5q72 0 116 -33t56 -93h-75q-20 63 -98 63q-35 0 -60 -16.5t-25 -47.5q0 -22 14.5 -34.5t47.5 -21.5l86 -21q113 -30 113 -124q0 -62 -46 -98t-119 -36 t-122.5 35t-59.5 96z"/>
<glyph glyph-name="t" horiz-adv-x="317" unicode="t" d="M88 112v268h-72v64h72v117h75v-117h107v-64h-107v-260q0 -62 59 -62q31 0 58 18v-70q-28 -15 -70 -15q-56 0 -89 30.5t-33 90.5z"/>
<glyph glyph-name="u" horiz-adv-x="487" unicode="u" d="M421 444v-444h-76v56q-20 -28 -54 -46.5t-75 -18.5q-74 0 -114.5 44t-40.5 118v291h76v-279q0 -49 24 -77t73 -28q38 0 68.5 23t42.5 60v301h76z"/>
<glyph glyph-name="v" horiz-adv-x="455" unicode="v" d="M264 0h-74l-172 444h81l130 -349l129 349h79z"/>
<glyph glyph-name="w" horiz-adv-x="629" unicode="w" d="M349 444l91 -339l98 339h73l-131 -444h-73l-92 337l-93 -337h-73l-131 444h75l98 -339l91 339h67z"/>
<glyph glyph-name="x" horiz-adv-x="449" unicode="x" d="M422 444l-156 -214l165 -230h-85l-123 173l-124 -173h-81l164 227l-155 217h86l112 -159l115 159h82z"/>
<glyph glyph-name="y" horiz-adv-x="455" unicode="y" d="M198 -170h-74l67 167l-173 447h81l131 -350l129 350h78z"/>
<glyph glyph-name="z" horiz-adv-x="434" unicode="z" d="M390 64v-64h-349v49l249 331h-241v64h337v-49l-247 -331h251z"/>
<glyph glyph-name="braceleft" horiz-adv-x="339" unicode="{" d="M175 206v-185q0 -37 36 -37h105v-68h-104q-49 0 -80 31.5t-31 80.5v183q0 37 -35 37h-46v70h46q35 0 35 37v183q0 49 31 80.5t80 31.5h104v-68h-105q-36 0 -36 -37v-185q0 -51 -43 -77q43 -26 43 -77z"/>
<glyph glyph-name="bar" horiz-adv-x="219" unicode="|" d="M73 -84v734h73v-734h-73z"/>
<glyph glyph-name="braceright" horiz-adv-x="339" unicode="}" d="M164 21v185q0 51 43 77q-43 26 -43 77v185q0 37 -36 37h-105v68h104q49 0 80 -31.5t31 -80.5v-183q0 -37 35 -37h46v-70h-46q-35 0 -35 -37v-183q0 -49 -31 -80.5t-80 -31.5h-104v68h105q36 0 36 37z"/>
<glyph glyph-name="asciitilde" horiz-adv-x="418" unicode="~" d="M315 335h63q0 -61 -25.5 -95t-71.5 -34q-26 0 -51 16.5t-46 33t-38 16.5q-43 0 -43 -62h-63q0 60 25.5 94t71.5 34q33 0 74.5 -33t60.5 -33q43 0 43 63z"/>
<glyph glyph-name="uni00A0" horiz-adv-x="221" unicode=" "/>
<glyph glyph-name="exclamdown" d="M57 -96l17 421h54l18 -421h-89zM48 469q0 23 15.5 38.5t37.5 15.5q23 0 38.5 -15.5t15.5 -38.5t-15.5 -39t-38.5 -16q-22 0 -37.5 16t-15.5 39z" unicode="¡"/>
<glyph glyph-name="cent" horiz-adv-x="446" unicode="¢" d="M35 232q0 94 47 156t125 73v87h69v-88q58 -10 93.5 -48.5t44.5 -96.5h-75q-7 38 -34 60t-68 22q-57 0 -91.5 -46t-34.5 -119t34.5 -119t91.5 -46q41 0 68 22t34 60h75q-8 -58 -44 -96.5t-94 -48.5v-91h-69v90q-78 11 -125 73t-47 156z"/>
<glyph glyph-name="sterling" horiz-adv-x="488" unicode="£" d="M187 425v-91h154v-62h-154v-116q0 -60 -23 -91h296v-65h-429v65h61q22 39 22 91v116h-83v62h83v91q0 87 49.5 142.5t129.5 55.5q71 0 115 -39.5t54 -105.5h-73q-14 79 -96 79q-50 0 -78 -35.5t-28 -96.5z"/>
<glyph glyph-name="yen" horiz-adv-x="535" unicode="¥" d="M71 264v59h127l-173 291h84l160 -275l159 275h81l-173 -291h127v-59h-157v-70h157v-60h-157v-134h-78v134h-157v60h157v70h-157z"/>
<glyph glyph-name="section" horiz-adv-x="455" unicode="§" d="M159 242l156 -105q46 14 46 63q0 17 -11 32.5t-22 24t-33 23.5l-156 106q-45 -15 -45 -64q0 -17 10.5 -32.5t22 -24.5t32.5 -23zM363 88q16 -27 16 -61q0 -59 -43 -93.5t-112 -34.5q-74 0 -118.5 36t-54.5 98h73q18 -72 100 -72q36 0 59 16.5t23 46.5q0 24 -12.5 39 t-42.5 34l-127 85q-50 32 -75.5 63t-25.5 75q0 36 18 66t50 47q-16 26 -16 62q0 59 43.5 93.5t112.5 34.5q73 0 118 -36t55 -98h-74q-18 72 -99 72q-36 0 -59.5 -16.5t-23.5 -46.5q0 -24 12 -38t44 -35l126 -84q49 -32 75 -63.5t26 -75.5q0 -36 -18.5 -67t-49.5 -47z"/>
<glyph glyph-name="dieresis" horiz-adv-x="500" unicode="¨" d="M274 571q0 20 13 33.5t32 13.5q20 0 33.5 -13.5t13.5 -33.5q0 -19 -14 -32.5t-33 -13.5t-32 13.5t-13 32.5zM133 571q0 20 13.5 33.5t33.5 13.5q19 0 32.5 -13.5t13.5 -33.5q0 -19 -13.5 -32.5t-32.5 -13.5t-33 13.5t-14 32.5z"/>
<glyph glyph-name="copyright" horiz-adv-x="706" unicode="©" d="M176 309q0 89 51 144t130 55q65 0 105.5 -34.5t52.5 -92.5h-74q-20 59 -84 59q-48 0 -77.5 -36t-29.5 -95t29.5 -95t77.5 -36q64 0 84 59h74q-12 -58 -53 -92.5t-105 -34.5q-79 0 -130 55t-51 144zM630 307q0 119 -80.5 198t-196.5 79t-196.5 -79t-80.5 -198t80.5 -198 t196.5 -79t196.5 79t80.5 198zM669 307q0 -136 -92 -226t-224 -90t-224 90t-92 226t92 226t224 90t224 -90t92 -226z"/>
<glyph glyph-name="ordfeminine" horiz-adv-x="292" unicode="ª" d="M199 397v27q-6 13 -23.5 22t-37.5 9q-25 0 -42.5 -11.5t-17.5 -32.5q0 -22 17.5 -33.5t42.5 -11.5q20 0 37.5 9t23.5 22zM264 321h-65v21q-24 -26 -76 -26q-47 0 -78.5 25t-31.5 69q0 41 32.5 67.5t80.5 26.5q43 0 73 -23v33q0 24 -14.5 39t-41.5 15q-42 0 -53 -35h-64 q8 41 40 66t79 25q56 0 87.5 -29.5t31.5 -81.5v-192z"/>
<glyph glyph-name="guillemotleft" horiz-adv-x="357" unicode="«" d="M332 74h-70l-92 148l92 148h70l-92 -148zM187 74h-70l-92 148l92 148h70l-92 -148z"/>
<glyph glyph-name="registered" horiz-adv-x="412" unicode="®" d="M247 475q0 12 -8 19.5t-22 7.5h-40v-53h40q14 0 22 7.5t8 18.5zM202 414h-25v-68h-42v192h84q32 0 50 -16.5t18 -46.5q0 -46 -42 -57l49 -72h-47zM356 440q0 67 -43.5 110.5t-106.5 43.5t-107 -43.5t-44 -110.5q0 -66 44 -109.5t107 -43.5t106.5 43.5t43.5 109.5z M387 440q0 -78 -53 -130.5t-128 -52.5t-128 52.5t-53 130.5t53 130.5t128 52.5t128 -52.5t53 -130.5z"/>
<glyph glyph-name="macron" horiz-adv-x="500" unicode="¯" d="M143 530v61h213v-61h-213z"/>
<glyph glyph-name="degree" horiz-adv-x="336" unicode="°" d="M291 499q0 -52 -36 -88t-87 -36t-87 36t-36 88t36 88t87 36t87 -36t36 -88zM100 499q0 -28 20 -48t48 -20t48 20t20 48t-20 48.5t-48 20.5t-48 -20.5t-20 -48.5z"/>
<glyph glyph-name="plusminus" horiz-adv-x="544" unicode="±" d="M78 88v62h389v-62h-389zM241 518h62v-129h164v-62h-164v-129h-62v129h-163v62h163v129z"/>
<glyph glyph-name="twosuperior" horiz-adv-x="276" unicode="²" d="M184 519q0 20 -13 32t-33 12q-22 0 -35 -15t-15 -37h-66q5 48 36.5 78t79.5 30q50 0 79 -26.5t29 -71.5q0 -20 -11 -41t-20.5 -32t-32.5 -36l-74 -76h141v-54h-226v43l112 117q27 28 38 44t11 33z"/>
<glyph glyph-name="threesuperior" horiz-adv-x="281" unicode="³" d="M114 427v48h24q23 0 37 12t14 34q0 20 -13.5 32.5t-35.5 12.5q-21 0 -35.5 -14t-16.5 -35h-63q6 45 36 73.5t77 28.5q51 0 80.5 -26.5t29.5 -69.5q0 -25 -12.5 -44.5t-32.5 -27.5q50 -18 50 -73q0 -44 -30.5 -72.5t-82.5 -28.5q-53 0 -84 28t-36 77h65q7 -51 56 -51 q24 0 38.5 13t14.5 36q0 22 -15 34.5t-39 12.5h-26z"/>
<glyph glyph-name="acute" horiz-adv-x="500" unicode="´" d="M240 516h-69l80 134h78z"/>
<glyph glyph-name="paragraph" horiz-adv-x="489" unicode="¶" d="M220 -90v391q-82 0 -143.5 40t-61.5 117t61.5 116.5t143.5 39.5h63v-704h-63zM353 -90v704h63v-704h-63z"/>
<glyph glyph-name="periodcentered" horiz-adv-x="176" unicode="·" d="M34 262q0 23 15.5 39t38.5 16q22 0 37.5 -16t15.5 -39t-15.5 -38.5t-37.5 -15.5q-23 0 -38.5 15.5t-15.5 38.5z"/>
<glyph glyph-name="cedilla" horiz-adv-x="500" unicode="¸" d="M250 -183h-71l66 132h74z"/>
<glyph glyph-name="onesuperior" horiz-adv-x="221" unicode="¹" d="M170 615v-333h-63v259l-88 -44v64l109 54h42z"/>
<glyph glyph-name="ordmasculine" horiz-adv-x="310" unicode="º" d="M228 469q0 43 -20 70t-53 27t-53 -27t-20 -70t20 -69.5t53 -26.5t53 26.5t20 69.5zM296 469q0 -68 -39 -111.5t-102 -43.5t-102.5 43.5t-39.5 111.5t39.5 111.5t102.5 43.5t102 -43.5t39 -111.5z"/>
<glyph glyph-name="guillemotright" horiz-adv-x="357" unicode="»" d="M95 74h-70l92 148l-92 148h70l92 -148zM240 74h-70l92 148l-92 148h70l92 -148z"/>
<glyph glyph-name="onequarter" horiz-adv-x="667" unicode="¼" d="M536 333l-107 -211h81v67h56v-67h52v-53h-52v-69h-56v69h-150v47l114 217h62zM191 615v-333h-62v259l-88 -44v64l108 54h42zM569 614l-429 -614h-67l429 614h67z"/>
<glyph glyph-name="onehalf" horiz-adv-x="682" unicode="½" d="M560 237q0 20 -12.5 32t-32.5 12q-22 0 -35.5 -15t-15.5 -37h-65q5 48 36 78.5t79 30.5q50 0 79.5 -27t29.5 -72q0 -20 -11 -41t-20.5 -32t-32.5 -36l-74 -76h141v-54h-226v43l111 117q26 27 37.5 43.5t11.5 33.5zM191 615v-333h-62v259l-88 -44v64l108 54h42zM569 614 l-429 -614h-67l429 614h67z"/>
<glyph glyph-name="threequarters" horiz-adv-x="706" unicode="¾" d="M575 333l-107 -211h81v67h56v-67h52v-53h-52v-69h-56v69h-150v47l114 217h62zM140 426v49h24q22 0 36.5 12t14.5 33q0 20 -13.5 32.5t-35.5 12.5q-21 0 -35.5 -14t-16.5 -35h-63q6 45 36 74t77 29q51 0 80.5 -26.5t29.5 -69.5q0 -25 -12.5 -45t-32.5 -28q23 -7 36.5 -27 t13.5 -45q0 -45 -30.5 -73.5t-82.5 -28.5t-83.5 28.5t-36.5 77.5h65q7 -52 56 -52q24 0 38.5 13.5t14.5 35.5t-15 34.5t-39 12.5h-26zM608 614l-429 -614h-67l429 614h67z"/>
<glyph glyph-name="questiondown" horiz-adv-x="432" unicode="¿" d="M24 67q0 12 1.5 23.5t6.5 23.5t7.5 20t12 21t12 18t15.5 19.5t14.5 16.5t16.5 18l16 16q41 44 43 82h74q-2 -36 -14.5 -61t-43.5 -59q-5 -6 -26.5 -28.5t-30.5 -34t-18.5 -32.5t-9.5 -42q0 -47 30 -75t81 -28q53 0 84 33.5t36 89.5h81q-9 -87 -63.5 -140t-137.5 -53 q-87 0 -137 46.5t-50 125.5zM262 469q0 -23 -15.5 -39t-37.5 -16q-23 0 -38.5 16t-15.5 39t15.5 38.5t38.5 15.5q22 0 37.5 -15.5t15.5 -38.5z"/>
<glyph glyph-name="Agrave" horiz-adv-x="596" unicode="À" d="M337 668h-75l-92 117h87zM297 516l-100 -262h200zM261 614h74l240 -614h-80l-71 185h-253l-70 -185h-80z"/>
<glyph glyph-name="Aacute" horiz-adv-x="596" unicode="Á" d="M333 668h-76l80 117h87zM297 516l-100 -262h200zM261 614h74l240 -614h-80l-71 185h-253l-70 -185h-80z"/>
<glyph glyph-name="Acircumflex" horiz-adv-x="596" unicode="Â" d="M333 791l92 -122h-68l-59 71l-59 -71h-68l92 122h70zM297 516l-100 -262h200zM261 614h74l240 -614h-80l-71 185h-253l-70 -185h-80z"/>
<glyph glyph-name="Atilde" horiz-adv-x="596" unicode="Ã" d="M384 784h48q0 -55 -19.5 -87t-56.5 -32q-26 0 -60 28t-50 28q-34 0 -34 -53h-49q0 55 19.5 87t56.5 32q27 0 60.5 -28t50.5 -28q32 0 34 53zM297 516l-100 -262h200zM261 614h74l240 -614h-80l-71 185h-253l-70 -185h-80z"/>
<glyph glyph-name="Adieresis" horiz-adv-x="596" unicode="Ä" d="M323 722q0 19 13 32.5t32 13.5q20 0 33.5 -13.5t13.5 -32.5t-13.5 -32.5t-33.5 -13.5q-19 0 -32 13.5t-13 32.5zM182 722q0 19 13.5 32.5t33.5 13.5q19 0 32.5 -13.5t13.5 -32.5t-13.5 -32.5t-32.5 -13.5q-20 0 -33.5 13.5t-13.5 32.5zM297 516l-100 -262h200zM261 614 h74l240 -614h-80l-71 185h-253l-70 -185h-80z"/>
<glyph glyph-name="Aring" horiz-adv-x="596" unicode="Å" d="M343 734q0 19 -13 32.5t-32 13.5t-32 -13.5t-13 -32.5t13 -32t32 -13t32 13t13 32zM385 734q0 -36 -25 -61t-62 -25t-62 25t-25 61q0 37 25 62t62 25t62 -25t25 -62zM297 516l-100 -262h200zM261 614h74l240 -614h-80l-71 185h-253l-70 -185h-80z"/>
<glyph glyph-name="AE" horiz-adv-x="862" unicode="Æ" d="M437 550l-180 -296h180v296zM390 614h421v-70h-297v-194h268v-70h-268v-209h297v-71h-374v185h-222l-112 -185h-82z"/>
<glyph glyph-name="Ccedilla" horiz-adv-x="586" unicode="Ç" d="M287 -183h-71l66 132h74zM37 307q0 141 78.5 228.5t196.5 87.5q95 0 157.5 -51t81.5 -138h-78q-42 118 -161 118q-88 0 -142 -67.5t-54 -177.5q0 -109 54 -177t142 -68q120 0 161 119h78q-19 -88 -81.5 -139t-157.5 -51q-118 0 -196.5 87.5t-78.5 228.5z"/>
<glyph glyph-name="Egrave" horiz-adv-x="515" unicode="È" d="M73 614h391v-70h-313v-194h284v-70h-284v-209h313v-71h-391v614zM313 668h-75l-92 117h87z"/>
<glyph glyph-name="Eacute" horiz-adv-x="515" unicode="É" d="M73 614h391v-70h-313v-194h284v-70h-284v-209h313v-71h-391v614zM305 668h-76l80 117h87z"/>
<glyph glyph-name="Ecircumflex" horiz-adv-x="515" unicode="Ê" d="M308 791l92 -122h-68l-59 71l-59 -71h-68l92 122h70zM73 614h391v-70h-313v-194h284v-70h-284v-209h313v-71h-391v614z"/>
<glyph glyph-name="Edieresis" horiz-adv-x="515" unicode="Ë" d="M73 614h391v-70h-313v-194h284v-70h-284v-209h313v-71h-391v614zM298 722q0 19 13 32.5t32 13.5q20 0 33.5 -13.5t13.5 -32.5t-13.5 -32.5t-33.5 -13.5q-19 0 -32 13.5t-13 32.5zM157 722q0 19 13.5 32.5t33.5 13.5q19 0 32.5 -13.5t13.5 -32.5t-13.5 -32.5t-32.5 -13.5 q-20 0 -33.5 13.5t-13.5 32.5z"/>
<glyph glyph-name="Igrave" horiz-adv-x="225" unicode="Ì" d="M153 668h-75l-92 117h87zM152 614v-614h-79v614h79z"/>
<glyph glyph-name="Iacute" horiz-adv-x="225" unicode="Í" d="M144 668h-76l80 117h87zM152 614v-614h-79v614h79z"/>
<glyph glyph-name="Icircumflex" horiz-adv-x="225" unicode="Î" d="M147 791l92 -122h-68l-59 71l-59 -71h-68l92 122h70zM152 614v-614h-79v614h79z"/>
<glyph glyph-name="Idieresis" horiz-adv-x="225" unicode="Ï" d="M137 722q0 19 13 32.5t32 13.5q20 0 33.5 -13.5t13.5 -32.5t-13.5 -32.5t-33.5 -13.5q-19 0 -32 13.5t-13 32.5zM-4 722q0 19 13.5 32.5t33.5 13.5q19 0 32.5 -13.5t13.5 -32.5t-13.5 -32.5t-32.5 -13.5q-20 0 -33.5 13.5t-13.5 32.5zM152 614v-614h-79v614h79z"/>
<glyph glyph-name="Eth" horiz-adv-x="620" unicode="Ð" d="M167 71h117q104 0 162.5 63.5t58.5 172.5t-59 173t-162 64h-117v-193h123v-67h-123v-213zM32 284v67h56v263h197q135 0 216.5 -83.5t81.5 -223.5t-81.5 -223.5t-216.5 -83.5h-197v284h-56z"/>
<glyph glyph-name="Ntilde" horiz-adv-x="623" unicode="Ñ" d="M550 614v-614h-58l-343 488v-488h-76v614h75l327 -467v467h75zM398 784h48q0 -55 -19.5 -87t-56.5 -32q-26 0 -60 28t-50 28q-34 0 -34 -53h-49q0 55 19.5 87t56.5 32q27 0 60.5 -28t50.5 -28q32 0 34 53z"/>
<glyph glyph-name="Ograve" horiz-adv-x="629" unicode="Ò" d="M513 307q0 108 -55 176.5t-144 68.5q-88 0 -143 -68.5t-55 -176.5t55 -176.5t143 -68.5q89 0 144 68.5t55 176.5zM592 307q0 -139 -78 -227.5t-200 -88.5q-121 0 -199 88.5t-78 227.5t78 227.5t199 88.5q122 0 200 -88.5t78 -227.5zM355 668h-75l-92 117h87z"/>
<glyph glyph-name="Oacute" horiz-adv-x="629" unicode="Ó" d="M513 307q0 108 -55 176.5t-144 68.5q-88 0 -143 -68.5t-55 -176.5t55 -176.5t143 -68.5q89 0 144 68.5t55 176.5zM592 307q0 -139 -78 -227.5t-200 -88.5q-121 0 -199 88.5t-78 227.5t78 227.5t199 88.5q122 0 200 -88.5t78 -227.5zM346 668h-76l80 117h87z"/>
<glyph glyph-name="Ocircumflex" horiz-adv-x="629" unicode="Ô" d="M349 791l92 -122h-68l-59 71l-59 -71h-68l92 122h70zM513 307q0 108 -55 176.5t-144 68.5q-88 0 -143 -68.5t-55 -176.5t55 -176.5t143 -68.5q89 0 144 68.5t55 176.5zM592 307q0 -139 -78 -227.5t-200 -88.5q-121 0 -199 88.5t-78 227.5t78 227.5t199 88.5 q122 0 200 -88.5t78 -227.5z"/>
<glyph glyph-name="Otilde" horiz-adv-x="629" unicode="Õ" d="M513 307q0 108 -55 176.5t-144 68.5q-88 0 -143 -68.5t-55 -176.5t55 -176.5t143 -68.5q89 0 144 68.5t55 176.5zM592 307q0 -139 -78 -227.5t-200 -88.5q-121 0 -199 88.5t-78 227.5t78 227.5t199 88.5q122 0 200 -88.5t78 -227.5zM401 784h48q0 -55 -19.5 -87 t-56.5 -32q-26 0 -60 28t-50 28q-34 0 -34 -53h-49q0 55 19.5 87t56.5 32q27 0 60.5 -28t50.5 -28q32 0 34 53z"/>
<glyph glyph-name="Odieresis" horiz-adv-x="629" unicode="Ö" d="M513 307q0 108 -55 176.5t-144 68.5q-88 0 -143 -68.5t-55 -176.5t55 -176.5t143 -68.5q89 0 144 68.5t55 176.5zM592 307q0 -139 -78 -227.5t-200 -88.5q-121 0 -199 88.5t-78 227.5t78 227.5t199 88.5q122 0 200 -88.5t78 -227.5zM339 722q0 19 13 32.5t32 13.5 q20 0 33.5 -13.5t13.5 -32.5t-13.5 -32.5t-33.5 -13.5q-19 0 -32 13.5t-13 32.5zM198 722q0 19 13.5 32.5t33.5 13.5q19 0 32.5 -13.5t13.5 -32.5t-13.5 -32.5t-32.5 -13.5q-20 0 -33.5 13.5t-13.5 32.5z"/>
<glyph glyph-name="multiply" horiz-adv-x="470" unicode="×" d="M193 295l-122 121l43 42l120 -122l122 122l43 -42l-122 -121l122 -122l-43 -43l-122 122l-120 -122l-43 43z"/>
<glyph glyph-name="Oslash" horiz-adv-x="639" unicode="Ø" d="M518 307q0 93 -38 155l-282 -357q48 -43 121 -43q89 0 144 68.5t55 176.5zM121 307q0 -97 39 -158l284 357q-51 46 -125 46q-88 0 -143 -68.5t-55 -176.5zM56 18l56 71q-70 88 -70 218q0 139 78 227.5t199 88.5q97 0 170 -60l47 60l46 -33l-54 -67q69 -86 69 -216 q0 -139 -78 -227.5t-200 -88.5q-97 0 -166 57l-50 -63z"/>
<glyph glyph-name="Ugrave" horiz-adv-x="607" unicode="Ù" d="M303 -9q-108 0 -174 65t-66 188v370h78v-361q0 -96 43 -144t119 -48t119 48t43 144v361h79v-371q0 -122 -66 -187t-175 -65zM344 668h-75l-92 117h87z"/>
<glyph glyph-name="Uacute" horiz-adv-x="607" unicode="Ú" d="M303 -9q-108 0 -174 65t-66 188v370h78v-361q0 -96 43 -144t119 -48t119 48t43 144v361h79v-371q0 -122 -66 -187t-175 -65zM335 668h-76l80 117h87z"/>
<glyph glyph-name="Ucircumflex" horiz-adv-x="607" unicode="Û" d="M338 791l92 -122h-68l-59 71l-59 -71h-68l92 122h70zM303 -9q-108 0 -174 65t-66 188v370h78v-361q0 -96 43 -144t119 -48t119 48t43 144v361h79v-371q0 -122 -66 -187t-175 -65z"/>
<glyph glyph-name="Udieresis" horiz-adv-x="607" unicode="Ü" d="M303 -9q-108 0 -174 65t-66 188v370h78v-361q0 -96 43 -144t119 -48t119 48t43 144v361h79v-371q0 -122 -66 -187t-175 -65zM328 722q0 19 13 32.5t32 13.5q20 0 33.5 -13.5t13.5 -32.5t-13.5 -32.5t-33.5 -13.5q-19 0 -32 13.5t-13 32.5zM187 722q0 19 13.5 32.5 t33.5 13.5q19 0 32.5 -13.5t13.5 -32.5t-13.5 -32.5t-32.5 -13.5q-20 0 -33.5 13.5t-13.5 32.5z"/>
<glyph glyph-name="Yacute" horiz-adv-x="557" unicode="Ý" d="M311 668h-76l80 117h87zM280 324l177 290h84l-224 -361v-253h-78v253l-222 361h86z"/>
<glyph glyph-name="Thorn" horiz-adv-x="537" unicode="Þ" d="M427 315q0 54 -32.5 84.5t-93.5 30.5h-149v-230h149q61 0 93.5 31t32.5 84zM303 131h-151v-131h-79v614h79v-115h151q95 0 148.5 -47.5t53.5 -136.5t-54 -136.5t-148 -47.5z"/>
<glyph glyph-name="germandbls" horiz-adv-x="510" unicode="ß" d="M342 367q56 -13 94 -61t38 -118q0 -91 -53 -142.5t-139 -51.5q-49 0 -86 17v69q29 -18 80 -18q59 0 92.5 35t33.5 98t-41.5 99t-112.5 36h-42v66h42q48 0 77 27.5t29 73.5q0 43 -27.5 70t-73.5 27q-55 0 -83.5 -36t-28.5 -95v-463h-74v463q0 88 49.5 142t135.5 54 q81 0 127.5 -44.5t46.5 -113.5q0 -50 -23.5 -85t-60.5 -49z"/>
<glyph glyph-name="agrave" horiz-adv-x="450" unicode="à" d="M271 516h-69l-89 134h78zM317 110v46q-10 24 -39.5 39.5t-64.5 15.5q-44 0 -75 -20t-31 -57q0 -38 31 -58.5t75 -20.5q35 0 64.5 15.5t39.5 39.5zM389 0h-72v33q-14 -15 -47 -28t-70 -13q-70 0 -117.5 39t-47.5 103q0 61 49 100t121 39q33 0 65 -11t47 -25v56 q0 43 -25.5 69t-72.5 26q-70 0 -91 -61h-74q11 56 56.5 91t109.5 35q79 0 124 -42t45 -115v-296z"/>
<glyph glyph-name="aacute" horiz-adv-x="450" unicode="á" d="M260 516h-69l80 134h78zM317 110v46q-10 24 -39.5 39.5t-64.5 15.5q-44 0 -75 -20t-31 -57q0 -38 31 -58.5t75 -20.5q35 0 64.5 15.5t39.5 39.5zM389 0h-72v33q-14 -15 -47 -28t-70 -13q-70 0 -117.5 39t-47.5 103q0 61 49 100t121 39q33 0 65 -11t47 -25v56 q0 43 -25.5 69t-72.5 26q-70 0 -91 -61h-74q11 56 56.5 91t109.5 35q79 0 124 -42t45 -115v-296z"/>
<glyph glyph-name="acircumflex" horiz-adv-x="450" unicode="â" d="M317 110v46q-10 24 -39.5 39.5t-64.5 15.5q-44 0 -75 -20t-31 -57q0 -38 31 -58.5t75 -20.5q35 0 64.5 15.5t39.5 39.5zM389 0h-72v33q-14 -15 -47 -28t-70 -13q-70 0 -117.5 39t-47.5 103q0 61 49 100t121 39q33 0 65 -11t47 -25v56q0 43 -25.5 69t-72.5 26 q-70 0 -91 -61h-74q11 56 56.5 91t109.5 35q79 0 124 -42t45 -115v-296zM264 645l92 -136h-65l-62 88l-62 -88h-65l92 136h70z"/>
<glyph glyph-name="atilde" horiz-adv-x="450" unicode="ã" d="M312 633h48q0 -54 -19.5 -86t-56.5 -32q-25 0 -57.5 29t-46.5 29q-34 0 -34 -55h-48q0 54 19.5 86t56.5 32q25 0 57.5 -29t46.5 -29q32 0 34 55zM317 110v46q-10 24 -39.5 39.5t-64.5 15.5q-44 0 -75 -20t-31 -57q0 -38 31 -58.5t75 -20.5q35 0 64.5 15.5t39.5 39.5z M389 0h-72v33q-14 -15 -47 -28t-70 -13q-70 0 -117.5 39t-47.5 103q0 61 49 100t121 39q33 0 65 -11t47 -25v56q0 43 -25.5 69t-72.5 26q-70 0 -91 -61h-74q11 56 56.5 91t109.5 35q79 0 124 -42t45 -115v-296z"/>
<glyph glyph-name="adieresis" horiz-adv-x="450" unicode="ä" d="M317 110v46q-10 24 -39.5 39.5t-64.5 15.5q-44 0 -75 -20t-31 -57q0 -38 31 -58.5t75 -20.5q35 0 64.5 15.5t39.5 39.5zM389 0h-72v33q-14 -15 -47 -28t-70 -13q-70 0 -117.5 39t-47.5 103q0 61 49 100t121 39q33 0 65 -11t47 -25v56q0 43 -25.5 69t-72.5 26 q-70 0 -91 -61h-74q11 56 56.5 91t109.5 35q79 0 124 -42t45 -115v-296zM254 571q0 20 13 33.5t32 13.5q20 0 33.5 -13.5t13.5 -33.5q0 -19 -14 -32.5t-33 -13.5t-32 13.5t-13 32.5zM113 571q0 20 13.5 33.5t33.5 13.5q19 0 32.5 -13.5t13.5 -33.5q0 -19 -13.5 -32.5 t-32.5 -13.5t-33 13.5t-14 32.5z"/>
<glyph glyph-name="aring" horiz-adv-x="450" unicode="å" d="M272 580q0 19 -13 32t-32 13t-32 -13t-13 -32t13 -32t32 -13t32 13t13 32zM314 580q0 -37 -25 -61.5t-62 -24.5t-62 24.5t-25 61.5t25 61.5t62 24.5t62 -24.5t25 -61.5zM317 110v46q-10 24 -39.5 39.5t-64.5 15.5q-44 0 -75 -20t-31 -57q0 -38 31 -58.5t75 -20.5 q35 0 64.5 15.5t39.5 39.5zM389 0h-72v33q-14 -15 -47 -28t-70 -13q-70 0 -117.5 39t-47.5 103q0 61 49 100t121 39q33 0 65 -11t47 -25v56q0 43 -25.5 69t-72.5 26q-70 0 -91 -61h-74q11 56 56.5 91t109.5 35q79 0 124 -42t45 -115v-296z"/>
<glyph glyph-name="ae" horiz-adv-x="731" unicode="æ" d="M511 389q-50 0 -84 -33t-42 -91h237q-2 53 -30 88.5t-81 35.5zM621 133h71q-12 -65 -59.5 -103.5t-120.5 -38.5q-106 0 -161 84q-61 -83 -158 -83q-68 0 -113.5 37.5t-45.5 98.5q0 63 48.5 100.5t122.5 37.5h110v27q0 43 -25 69t-72 26q-72 0 -93 -61h-72q11 56 56.5 91 t109.5 35q108 0 144 -81q56 81 147 81q90 0 139 -59.5t49 -158.5v-27h-315q1 -71 37 -112t92 -41q42 0 71 20.5t38 57.5zM199 55q42 0 72.5 22t43.5 59v71h-105q-44 0 -74.5 -19t-30.5 -56t27 -57t67 -20z"/>
<glyph glyph-name="ccedilla" horiz-adv-x="446" unicode="ç" d="M212 -183h-71l66 132h74zM35 222q0 103 56 167t146 64q73 0 119.5 -39t58.5 -104h-77q-8 36 -34.5 56.5t-66.5 20.5q-57 0 -91.5 -46t-34.5 -119t34.5 -119t91.5 -46q40 0 66.5 20.5t34.5 56.5h77q-12 -65 -58.5 -104t-119.5 -39q-90 0 -146 64t-56 167z"/>
<glyph glyph-name="egrave" horiz-adv-x="457" unicode="è" d="M279 516h-69l-89 134h78zM238 389q-50 0 -84 -33t-42 -91h236q-1 53 -29 88.5t-81 35.5zM347 133h71q-12 -65 -59 -103.5t-120 -38.5q-91 0 -147.5 63.5t-56.5 166.5q0 101 56 166.5t146 65.5q89 0 138 -59.5t49 -158.5v-27h-314q1 -70 36.5 -111.5t92.5 -41.5 q42 0 70.5 20.5t37.5 57.5z"/>
<glyph glyph-name="eacute" horiz-adv-x="457" unicode="é" d="M238 389q-50 0 -84 -33t-42 -91h236q-1 53 -29 88.5t-81 35.5zM347 133h71q-12 -65 -59 -103.5t-120 -38.5q-91 0 -147.5 63.5t-56.5 166.5q0 101 56 166.5t146 65.5q89 0 138 -59.5t49 -158.5v-27h-314q1 -70 36.5 -111.5t92.5 -41.5q42 0 70.5 20.5t37.5 57.5zM270 516 h-69l80 134h78z"/>
<glyph glyph-name="ecircumflex" horiz-adv-x="457" unicode="ê" d="M238 389q-50 0 -84 -33t-42 -91h236q-1 53 -29 88.5t-81 35.5zM347 133h71q-12 -65 -59 -103.5t-120 -38.5q-91 0 -147.5 63.5t-56.5 166.5q0 101 56 166.5t146 65.5q89 0 138 -59.5t49 -158.5v-27h-314q1 -70 36.5 -111.5t92.5 -41.5q42 0 70.5 20.5t37.5 57.5zM275 645 l92 -136h-65l-62 88l-62 -88h-65l92 136h70z"/>
<glyph glyph-name="edieresis" horiz-adv-x="457" unicode="ë" d="M238 389q-50 0 -84 -33t-42 -91h236q-1 53 -29 88.5t-81 35.5zM347 133h71q-12 -65 -59 -103.5t-120 -38.5q-91 0 -147.5 63.5t-56.5 166.5q0 101 56 166.5t146 65.5q89 0 138 -59.5t49 -158.5v-27h-314q1 -70 36.5 -111.5t92.5 -41.5q42 0 70.5 20.5t37.5 57.5zM266 571 q0 20 13 33.5t32 13.5q20 0 33.5 -13.5t13.5 -33.5q0 -19 -14 -32.5t-33 -13.5t-32 13.5t-13 32.5zM125 571q0 20 13.5 33.5t33.5 13.5q19 0 32.5 -13.5t13.5 -33.5q0 -19 -13.5 -32.5t-32.5 -13.5t-33 13.5t-14 32.5z"/>
<glyph glyph-name="igrave" d="M143 516h-69l-89 134h78zM142 444v-444h-75v444h75z" unicode="ì"/>
<glyph glyph-name="iacute" d="M142 444v-444h-75v444h75zM134 516h-69l80 134h78z" unicode="í"/>
<glyph glyph-name="icircumflex" d="M142 444v-444h-75v444h75zM139 645l74 -136h-64l-45 85l-45 -85h-63l74 136h69z" unicode="î"/>
<glyph glyph-name="idieresis" d="M142 444v-444h-75v444h75zM121 571q0 20 13 33.5t32 13.5q20 0 33.5 -13.5t13.5 -33.5q0 -19 -14 -32.5t-33 -13.5t-32 13.5t-13 32.5zM-3 571q0 20 13 33.5t33 13.5q19 0 32.5 -13.5t13.5 -33.5q0 -19 -13.5 -32.5t-32.5 -13.5t-32.5 13.5t-13.5 32.5z" unicode="ï"/>
<glyph glyph-name="eth" horiz-adv-x="478" unicode="ð" d="M367 220q0 74 -34.5 119t-93.5 45t-93.5 -45t-34.5 -119t34.5 -118.5t93.5 -44.5t93.5 44.5t34.5 118.5zM139 494l-18 47l80 26q-48 42 -100 79v4h98q45 -31 74 -59l85 29l17 -47l-63 -21q131 -147 131 -326q0 -105 -56.5 -170t-147.5 -65t-147.5 63.5t-56.5 165.5 t55 166t141 64q63 0 103 -44h3q-22 50 -94 122z"/>
<glyph glyph-name="ntilde" horiz-adv-x="489" unicode="ñ" d="M331 633h48q0 -54 -19.5 -86t-56.5 -32q-25 0 -57.5 29t-46.5 29q-34 0 -34 -55h-48q0 54 19.5 86t56.5 32q25 0 57.5 -29t46.5 -29q32 0 34 55zM67 0v444h75v-56q21 28 55.5 46.5t75.5 18.5q74 0 115 -44t41 -118v-291h-76v279q0 48 -24.5 76.5t-73.5 28.5 q-39 0 -70 -23.5t-43 -59.5v-301h-75z"/>
<glyph glyph-name="ograve" horiz-adv-x="478" unicode="ò" d="M277 516h-69l-89 134h78zM367 222q0 74 -34.5 119.5t-93.5 45.5t-93.5 -45.5t-34.5 -119.5t34.5 -119.5t93.5 -45.5t93.5 45.5t34.5 119.5zM443 222q0 -102 -56.5 -166.5t-147.5 -64.5t-147.5 64.5t-56.5 166.5t56.5 166.5t147.5 64.5t147.5 -64.5t56.5 -166.5z"/>
<glyph glyph-name="oacute" horiz-adv-x="478" unicode="ó" d="M367 222q0 74 -34.5 119.5t-93.5 45.5t-93.5 -45.5t-34.5 -119.5t34.5 -119.5t93.5 -45.5t93.5 45.5t34.5 119.5zM443 222q0 -102 -56.5 -166.5t-147.5 -64.5t-147.5 64.5t-56.5 166.5t56.5 166.5t147.5 64.5t147.5 -64.5t56.5 -166.5zM268 516h-69l80 134h78z"/>
<glyph glyph-name="ocircumflex" horiz-adv-x="478" unicode="ô" d="M367 222q0 74 -34.5 119.5t-93.5 45.5t-93.5 -45.5t-34.5 -119.5t34.5 -119.5t93.5 -45.5t93.5 45.5t34.5 119.5zM443 222q0 -102 -56.5 -166.5t-147.5 -64.5t-147.5 64.5t-56.5 166.5t56.5 166.5t147.5 64.5t147.5 -64.5t56.5 -166.5zM274 645l92 -136h-65l-62 88 l-62 -88h-65l92 136h70z"/>
<glyph glyph-name="otilde" horiz-adv-x="478" unicode="õ" d="M322 633h48q0 -54 -19.5 -86t-56.5 -32q-25 0 -57.5 29t-46.5 29q-34 0 -34 -55h-48q0 54 19.5 86t56.5 32q25 0 57.5 -29t46.5 -29q32 0 34 55zM367 222q0 74 -34.5 119.5t-93.5 45.5t-93.5 -45.5t-34.5 -119.5t34.5 -119.5t93.5 -45.5t93.5 45.5t34.5 119.5zM443 222 q0 -102 -56.5 -166.5t-147.5 -64.5t-147.5 64.5t-56.5 166.5t56.5 166.5t147.5 64.5t147.5 -64.5t56.5 -166.5z"/>
<glyph glyph-name="odieresis" horiz-adv-x="478" unicode="ö" d="M367 222q0 74 -34.5 119.5t-93.5 45.5t-93.5 -45.5t-34.5 -119.5t34.5 -119.5t93.5 -45.5t93.5 45.5t34.5 119.5zM443 222q0 -102 -56.5 -166.5t-147.5 -64.5t-147.5 64.5t-56.5 166.5t56.5 166.5t147.5 64.5t147.5 -64.5t56.5 -166.5zM264 571q0 20 13 33.5t32 13.5 q20 0 33.5 -13.5t13.5 -33.5q0 -19 -14 -32.5t-33 -13.5t-32 13.5t-13 32.5zM123 571q0 20 13.5 33.5t33.5 13.5q19 0 32.5 -13.5t13.5 -33.5q0 -19 -13.5 -32.5t-32.5 -13.5t-33 13.5t-14 32.5z"/>
<glyph glyph-name="divide" horiz-adv-x="540" unicode="÷" d="M220 136q0 21 14.5 36t35.5 15t36 -15t15 -36t-15 -36t-36 -15t-35.5 15t-14.5 36zM220 458q0 21 14.5 36t35.5 15t36 -15t15 -36t-15 -36t-36 -15t-35.5 15t-14.5 36zM73 266v62h394v-62h-394z"/>
<glyph glyph-name="oslash" horiz-adv-x="488" unicode="ø" d="M115 222q0 -58 20 -98l184 237q-31 26 -75 26q-59 0 -94 -45.5t-35 -119.5zM373 222q0 57 -22 99l-184 -238q31 -26 77 -26q59 0 94 45.5t35 119.5zM40 1l49 63q-49 61 -49 158q0 102 56.5 166.5t147.5 64.5q68 0 117 -37l42 53l41 -29l-46 -60q50 -65 50 -158 q0 -102 -56.5 -166.5t-147.5 -64.5q-70 0 -119 38l-44 -57z"/>
<glyph glyph-name="ugrave" horiz-adv-x="487" unicode="ù" d="M281 516h-69l-89 134h78zM421 444v-444h-76v56q-20 -28 -54 -46.5t-75 -18.5q-74 0 -114.5 44t-40.5 118v291h76v-279q0 -49 24 -77t73 -28q38 0 68.5 23t42.5 60v301h76z"/>
<glyph glyph-name="uacute" horiz-adv-x="487" unicode="ú" d="M421 444v-444h-76v56q-20 -28 -54 -46.5t-75 -18.5q-74 0 -114.5 44t-40.5 118v291h76v-279q0 -49 24 -77t73 -28q38 0 68.5 23t42.5 60v301h76zM272 516h-69l80 134h78z"/>
<glyph glyph-name="ucircumflex" horiz-adv-x="487" unicode="û" d="M421 444v-444h-76v56q-20 -28 -54 -46.5t-75 -18.5q-74 0 -114.5 44t-40.5 118v291h76v-279q0 -49 24 -77t73 -28q38 0 68.5 23t42.5 60v301h76zM278 645l92 -136h-65l-62 88l-62 -88h-65l92 136h70z"/>
<glyph glyph-name="udieresis" horiz-adv-x="487" unicode="ü" d="M421 444v-444h-76v56q-20 -28 -54 -46.5t-75 -18.5q-74 0 -114.5 44t-40.5 118v291h76v-279q0 -49 24 -77t73 -28q38 0 68.5 23t42.5 60v301h76zM268 571q0 20 13 33.5t32 13.5q20 0 33.5 -13.5t13.5 -33.5q0 -19 -14 -32.5t-33 -13.5t-32 13.5t-13 32.5zM127 571 q0 20 13.5 33.5t33.5 13.5q19 0 32.5 -13.5t13.5 -33.5q0 -19 -13.5 -32.5t-32.5 -13.5t-33 13.5t-14 32.5z"/>
<glyph glyph-name="yacute" horiz-adv-x="455" unicode="ý" d="M257 516h-69l80 134h78zM198 -170h-74l67 167l-173 447h81l131 -350l129 350h78z"/>
<glyph glyph-name="thorn" horiz-adv-x="502" unicode="þ" d="M142 312v-180q17 -34 47.5 -53.5t66.5 -19.5q62 0 98.5 45.5t36.5 117.5t-36.5 117.5t-98.5 45.5q-36 0 -66.5 -19.5t-47.5 -53.5zM142 52v-222h-75v820h75v-258q19 26 52.5 43.5t72.5 17.5q94 0 147 -66.5t53 -164.5t-53 -164.5t-147 -66.5q-39 0 -72.5 17.5t-52.5 43.5 z"/>
<glyph glyph-name="Amacron" horiz-adv-x="596" unicode="Ā" d="M192 671v61h213v-61h-213zM297 516l-100 -262h200zM261 614h74l240 -614h-80l-71 185h-253l-70 -185h-80z"/>
<glyph glyph-name="amacron" horiz-adv-x="450" unicode="ā" d="M123 530v61h213v-61h-213zM317 110v46q-10 24 -39.5 39.5t-64.5 15.5q-44 0 -75 -20t-31 -57q0 -38 31 -58.5t75 -20.5q35 0 64.5 15.5t39.5 39.5zM389 0h-72v33q-14 -15 -47 -28t-70 -13q-70 0 -117.5 39t-47.5 103q0 61 49 100t121 39q33 0 65 -11t47 -25v56 q0 43 -25.5 69t-72.5 26q-70 0 -91 -61h-74q11 56 56.5 91t109.5 35q79 0 124 -42t45 -115v-296z"/>
<glyph glyph-name="Abreve" horiz-adv-x="596" unicode="Ă" d="M298 666q-52 0 -83.5 31.5t-31.5 88.5h57q0 -31 16 -47.5t42 -16.5q27 0 43 16.5t16 47.5h57q0 -58 -31 -89t-85 -31zM297 516l-100 -262h200zM261 614h74l240 -614h-80l-71 185h-253l-70 -185h-80z"/>
<glyph glyph-name="abreve" horiz-adv-x="450" unicode="ă" d="M227 500q-52 0 -83 33.5t-31 94.5h57q0 -34 15 -53.5t42 -19.5t42 19.5t15 53.5h57q0 -61 -31 -94.5t-83 -33.5zM317 110v46q-10 24 -39.5 39.5t-64.5 15.5q-44 0 -75 -20t-31 -57q0 -38 31 -58.5t75 -20.5q35 0 64.5 15.5t39.5 39.5zM389 0h-72v33q-14 -15 -47 -28 t-70 -13q-70 0 -117.5 39t-47.5 103q0 61 49 100t121 39q33 0 65 -11t47 -25v56q0 43 -25.5 69t-72.5 26q-70 0 -91 -61h-74q11 56 56.5 91t109.5 35q79 0 124 -42t45 -115v-296z"/>
<glyph glyph-name="Aogonek" horiz-adv-x="596" unicode="Ą" d="M297 516l-100 -262h201zM261 614h74l240 -614q-33 -54 -41.5 -71.5t-8.5 -34.5q0 -26 23 -26q14 0 37 15v-50q-26 -19 -52 -19q-32 0 -49.5 18t-17.5 48q0 18 8 38.5t16 34t29 47.5h-24l-71 185h-253l-70 -185h-80z"/>
<glyph glyph-name="aogonek" horiz-adv-x="450" unicode="ą" d="M333 0h-17v33q-15 -15 -47 -28t-69 -13q-70 0 -117.5 39t-47.5 103q0 61 49 100t121 39q32 0 63.5 -11t47.5 -25v56q0 43 -25 69t-72 26q-73 0 -92 -61h-73q11 56 56.5 91t109.5 35q79 0 124 -42t45 -115v-296q-32 -53 -40.5 -71t-8.5 -35q0 -26 22 -26q16 0 37 15v-50 q-24 -19 -52 -19q-32 0 -49 17.5t-17 48.5q0 18 7.5 38.5t16 34.5t28.5 47zM316 110v46q-9 24 -38.5 39.5t-64.5 15.5q-44 0 -75 -20t-31 -57q0 -38 31 -58.5t75 -20.5q35 0 64.5 15.5t38.5 39.5z"/>
<glyph glyph-name="Cacute" horiz-adv-x="586" unicode="Ć" d="M349 668h-76l80 117h87zM37 307q0 141 78.5 228.5t196.5 87.5q95 0 157.5 -51t81.5 -138h-78q-42 118 -161 118q-88 0 -142 -67.5t-54 -177.5q0 -109 54 -177t142 -68q120 0 161 119h78q-19 -88 -81.5 -139t-157.5 -51q-118 0 -196.5 87.5t-78.5 228.5z"/>
<glyph glyph-name="cacute" horiz-adv-x="446" unicode="ć" d="M35 222q0 103 56 167t146 64q73 0 119.5 -39t58.5 -104h-77q-8 36 -34.5 56.5t-66.5 20.5q-57 0 -91.5 -46t-34.5 -119t34.5 -119t91.5 -46q40 0 66.5 20.5t34.5 56.5h77q-12 -65 -58.5 -104t-119.5 -39q-90 0 -146 64t-56 167zM270 516h-69l80 134h78z"/>
<glyph glyph-name="Ccircumflex" horiz-adv-x="586" unicode="Ĉ" d="M353 791l92 -122h-68l-59 71l-59 -71h-68l92 122h70zM37 307q0 141 78.5 228.5t196.5 87.5q95 0 157.5 -51t81.5 -138h-78q-42 118 -161 118q-88 0 -142 -67.5t-54 -177.5q0 -109 54 -177t142 -68q120 0 161 119h78q-19 -88 -81.5 -139t-157.5 -51q-118 0 -196.5 87.5 t-78.5 228.5z"/>
<glyph glyph-name="ccircumflex" horiz-adv-x="446" unicode="ĉ" d="M35 222q0 103 56 167t146 64q73 0 119.5 -39t58.5 -104h-77q-8 36 -34.5 56.5t-66.5 20.5q-57 0 -91.5 -46t-34.5 -119t34.5 -119t91.5 -46q40 0 66.5 20.5t34.5 56.5h77q-12 -65 -58.5 -104t-119.5 -39q-90 0 -146 64t-56 167zM276 645l92 -136h-65l-62 88l-62 -88h-65 l92 136h70z"/>
<glyph glyph-name="Cdotaccent" horiz-adv-x="586" unicode="Ċ" d="M37 307q0 141 78.5 228.5t196.5 87.5q95 0 157.5 -51t81.5 -138h-78q-42 118 -161 118q-88 0 -142 -67.5t-54 -177.5q0 -109 54 -177t142 -68q120 0 161 119h78q-19 -88 -81.5 -139t-157.5 -51q-118 0 -196.5 87.5t-78.5 228.5zM363 721q0 -19 -14.5 -33.5t-33.5 -14.5 t-33.5 14.5t-14.5 33.5q0 20 14 34.5t34 14.5t34 -14.5t14 -34.5z"/>
<glyph glyph-name="cdotaccent" horiz-adv-x="446" unicode="ċ" d="M289 578q0 -20 -14.5 -34t-33.5 -14t-33.5 14t-14.5 34t14 34t34 14t34 -14t14 -34zM35 222q0 103 56 167t146 64q73 0 119.5 -39t58.5 -104h-77q-8 36 -34.5 56.5t-66.5 20.5q-57 0 -91.5 -46t-34.5 -119t34.5 -119t91.5 -46q40 0 66.5 20.5t34.5 56.5h77 q-12 -65 -58.5 -104t-119.5 -39q-90 0 -146 64t-56 167z"/>
<glyph glyph-name="Ccaron" horiz-adv-x="586" unicode="Č" d="M37 307q0 141 78.5 228.5t196.5 87.5q95 0 157.5 -51t81.5 -138h-78q-42 118 -161 118q-88 0 -142 -67.5t-54 -177.5q0 -109 54 -177t142 -68q120 0 161 119h78q-19 -88 -81.5 -139t-157.5 -51q-118 0 -196.5 87.5t-78.5 228.5zM280 666l-92 121h68l59 -71l59 71h68 l-92 -121h-70z"/>
<glyph glyph-name="ccaron" horiz-adv-x="446" unicode="č" d="M35 222q0 103 56 167t146 64q73 0 119.5 -39t58.5 -104h-77q-8 36 -34.5 56.5t-66.5 20.5q-57 0 -91.5 -46t-34.5 -119t34.5 -119t91.5 -46q40 0 66.5 20.5t34.5 56.5h77q-12 -65 -58.5 -104t-119.5 -39q-90 0 -146 64t-56 167zM368 646l-92 -136h-70l-92 136h65l62 -87 l62 87h65z"/>
<glyph glyph-name="Dcaron" horiz-adv-x="605" unicode="Ď" d="M73 0v614h197q135 0 216.5 -83.5t81.5 -223.5t-81.5 -223.5t-216.5 -83.5h-197zM152 71h117q104 0 162.5 63.5t58.5 172.5t-59 173t-162 64h-117v-473zM245 666l-92 121h68l59 -71l59 71h68l-92 -121h-70z"/>
<glyph glyph-name="dcaron" horiz-adv-x="502" unicode="ď" d="M360 132v180q-17 34 -47.5 53.5t-66.5 19.5q-62 0 -98.5 -45.5t-36.5 -117.5t36.5 -117.5t98.5 -45.5q36 0 66.5 19.5t47.5 53.5zM360 0v52q-18 -26 -52 -43.5t-73 -17.5q-94 0 -147 66t-53 165q0 98 53 164.5t147 66.5q39 0 73 -17.5t52 -43.5v258h76v-650h-76zM549 486 h-60l33 164h60z"/>
<glyph glyph-name="Dcroat" horiz-adv-x="620" unicode="Đ" d="M167 71h117q104 0 162.5 63.5t58.5 172.5t-59 173t-162 64h-117v-193h123v-67h-123v-213zM32 284v67h56v263h197q135 0 216.5 -83.5t81.5 -223.5t-81.5 -223.5t-216.5 -83.5h-197v284h-56z"/>
<glyph glyph-name="dcroat" horiz-adv-x="502" unicode="đ" d="M360 132v180q-17 34 -47.5 53.5t-66.5 19.5q-62 0 -98.5 -45.5t-36.5 -117.5t36.5 -117.5t98.5 -45.5q36 0 66.5 19.5t47.5 53.5zM252 511v54h108v85h76v-85h56v-54h-56v-511h-76v52q-18 -26 -52 -43.5t-73 -17.5q-94 0 -147 66t-53 165q0 98 53 164.5t147 66.5 q39 0 73 -17.5t52 -43.5v119h-108z"/>
<glyph glyph-name="Emacron" horiz-adv-x="515" unicode="Ē" d="M73 614h391v-70h-313v-194h284v-70h-284v-209h313v-71h-391v614zM167 671v61h213v-61h-213z"/>
<glyph glyph-name="emacron" horiz-adv-x="457" unicode="ē" d="M238 389q-50 0 -84 -33t-42 -91h236q-1 53 -29 88.5t-81 35.5zM347 133h71q-12 -65 -59 -103.5t-120 -38.5q-91 0 -147.5 63.5t-56.5 166.5q0 101 56 166.5t146 65.5q89 0 138 -59.5t49 -158.5v-27h-314q1 -70 36.5 -111.5t92.5 -41.5q42 0 70.5 20.5t37.5 57.5zM135 530 v61h213v-61h-213z"/>
<glyph glyph-name="Ebreve" horiz-adv-x="515" unicode="Ĕ" d="M73 614h391v-70h-313v-194h284v-70h-284v-209h313v-71h-391v614zM273 666q-52 0 -83.5 31.5t-31.5 88.5h57q0 -31 16 -47.5t42 -16.5q27 0 43 16.5t16 47.5h57q0 -58 -31.5 -89t-84.5 -31z"/>
<glyph glyph-name="ebreve" horiz-adv-x="457" unicode="ĕ" d="M241 500q-52 0 -83 33.5t-31 94.5h57q0 -34 15 -53.5t42 -19.5t42 19.5t15 53.5h57q0 -61 -31 -94.5t-83 -33.5zM238 389q-50 0 -84 -33t-42 -91h236q-1 53 -29 88.5t-81 35.5zM347 133h71q-12 -65 -59 -103.5t-120 -38.5q-91 0 -147.5 63.5t-56.5 166.5q0 101 56 166.5 t146 65.5q89 0 138 -59.5t49 -158.5v-27h-314q1 -70 36.5 -111.5t92.5 -41.5q42 0 70.5 20.5t37.5 57.5z"/>
<glyph glyph-name="Edotaccent" horiz-adv-x="515" unicode="Ė" d="M73 614h391v-70h-313v-194h284v-70h-284v-209h313v-71h-391v614zM321 721q0 -19 -14.5 -33.5t-33.5 -14.5t-33.5 14.5t-14.5 33.5q0 20 14 34.5t34 14.5t34 -14.5t14 -34.5z"/>
<glyph glyph-name="edotaccent" horiz-adv-x="457" unicode="ė" d="M289 578q0 -20 -14.5 -34t-33.5 -14t-33.5 14t-14.5 34t14 34t34 14t34 -14t14 -34zM238 389q-50 0 -84 -33t-42 -91h236q-1 53 -29 88.5t-81 35.5zM347 133h71q-12 -65 -59 -103.5t-120 -38.5q-91 0 -147.5 63.5t-56.5 166.5q0 101 56 166.5t146 65.5q89 0 138 -59.5 t49 -158.5v-27h-314q1 -70 36.5 -111.5t92.5 -41.5q42 0 70.5 20.5t37.5 57.5z"/>
<glyph glyph-name="Eogonek" horiz-adv-x="515" unicode="Ę" d="M73 614h391v-70h-313v-194h284v-70h-284v-209h313v-71h-33q-30 -49 -39.5 -69t-9.5 -37q0 -26 22 -26q16 0 37 15v-50q-24 -19 -52 -19q-32 0 -49 17.5t-17 48.5q0 18 7.5 38.5t16 34.5t28.5 47h-302v614z"/>
<glyph glyph-name="eogonek" horiz-adv-x="457" unicode="ę" d="M280 -3q-20 -6 -41 -6q-91 0 -147.5 63.5t-56.5 166.5q0 101 56 166.5t146 65.5q89 0 138 -59.5t49 -158.5v-27h-314q1 -70 36.5 -111.5t92.5 -41.5q41 0 70 20.5t38 57.5h71q-10 -56 -60 -108q-75 -77 -75 -128q0 -29 24 -29q16 0 37 15v-50q-24 -19 -52 -19 q-32 0 -50 18.5t-18 49.5q0 49 56 115zM238 389q-50 0 -84 -33t-42 -91h236q-1 53 -29 88.5t-81 35.5z"/>
<glyph glyph-name="Ecaron" horiz-adv-x="515" unicode="Ě" d="M73 614h391v-70h-313v-194h284v-70h-284v-209h313v-71h-391v614zM242 666l-92 121h68l59 -71l59 71h68l-92 -121h-70z"/>
<glyph glyph-name="ecaron" horiz-adv-x="457" unicode="ě" d="M238 389q-50 0 -84 -33t-42 -91h236q-1 53 -29 88.5t-81 35.5zM347 133h71q-12 -65 -59 -103.5t-120 -38.5q-91 0 -147.5 63.5t-56.5 166.5q0 101 56 166.5t146 65.5q89 0 138 -59.5t49 -158.5v-27h-314q1 -70 36.5 -111.5t92.5 -41.5q42 0 70.5 20.5t37.5 57.5zM368 646 l-92 -136h-70l-92 136h65l62 -87l62 87h65z"/>
<glyph glyph-name="Gcircumflex" horiz-adv-x="610" unicode="Ĝ" d="M498 235h-147v68h222v-42q0 -122 -70.5 -196t-183.5 -74q-122 0 -202 87t-80 229q0 141 80 228.5t200 87.5q96 0 159.5 -51t82.5 -138h-79q-43 118 -163 118q-90 0 -145.5 -67.5t-55.5 -177.5t56 -178t147 -68q79 0 125.5 46.5t53.5 127.5zM353 791l92 -122h-68l-59 71 l-59 -71h-68l92 122h70z"/>
<glyph glyph-name="gcircumflex" horiz-adv-x="501" unicode="ĝ" d="M358 140v177q-38 69 -113 69q-62 0 -97.5 -44t-35.5 -114t35.5 -113.5t97.5 -43.5q75 0 113 69zM358 30v33q-18 -25 -51.5 -42.5t-72.5 -17.5q-93 0 -146 66t-53 159q0 94 53 159.5t146 65.5q39 0 72.5 -17t51.5 -42v50h76v-409q0 -106 -54.5 -160.5t-143.5 -54.5 q-80 0 -129.5 39t-60.5 108h74q19 -83 116 -83q122 0 122 146zM294 645l92 -136h-65l-62 88l-62 -88h-65l92 136h70z"/>
<glyph glyph-name="Gbreve" horiz-adv-x="610" unicode="Ğ" d="M498 235h-147v68h222v-42q0 -122 -70.5 -196t-183.5 -74q-122 0 -202 87t-80 229q0 141 80 228.5t200 87.5q96 0 159.5 -51t82.5 -138h-79q-43 118 -163 118q-90 0 -145.5 -67.5t-55.5 -177.5t56 -178t147 -68q79 0 125.5 46.5t53.5 127.5zM319 666q-52 0 -83.5 31.5 t-31.5 88.5h57q0 -31 16 -47.5t42 -16.5q27 0 43 16.5t16 47.5h57q0 -58 -31.5 -89t-84.5 -31z"/>
<glyph glyph-name="gbreve" horiz-adv-x="501" unicode="ğ" d="M259 500q-52 0 -83 33.5t-31 94.5h57q0 -34 15 -53.5t42 -19.5t42 19.5t15 53.5h57q0 -61 -31 -94.5t-83 -33.5zM358 140v177q-38 69 -113 69q-62 0 -97.5 -44t-35.5 -114t35.5 -113.5t97.5 -43.5q75 0 113 69zM358 30v33q-18 -25 -51.5 -42.5t-72.5 -17.5q-93 0 -146 66 t-53 159q0 94 53 159.5t146 65.5q39 0 72.5 -17t51.5 -42v50h76v-409q0 -106 -54.5 -160.5t-143.5 -54.5q-80 0 -129.5 39t-60.5 108h74q19 -83 116 -83q122 0 122 146z"/>
<glyph glyph-name="Gdotaccent" horiz-adv-x="610" unicode="Ġ" d="M498 235h-147v68h222v-42q0 -122 -70.5 -196t-183.5 -74q-122 0 -202 87t-80 229q0 141 80 228.5t200 87.5q96 0 159.5 -51t82.5 -138h-79q-43 118 -163 118q-90 0 -145.5 -67.5t-55.5 -177.5t56 -178t147 -68q79 0 125.5 46.5t53.5 127.5zM368 721q0 -19 -14 -33.5 t-34 -14.5t-34 14.5t-14 33.5q0 20 14 34.5t34 14.5t34 -14.5t14 -34.5z"/>
<glyph glyph-name="gdotaccent" horiz-adv-x="501" unicode="ġ" d="M358 140v177q-38 69 -113 69q-62 0 -97.5 -44t-35.5 -114t35.5 -113.5t97.5 -43.5q75 0 113 69zM358 30v33q-18 -25 -51.5 -42.5t-72.5 -17.5q-93 0 -146 66t-53 159q0 94 53 159.5t146 65.5q39 0 72.5 -17t51.5 -42v50h76v-409q0 -106 -54.5 -160.5t-143.5 -54.5 q-80 0 -129.5 39t-60.5 108h74q19 -83 116 -83q122 0 122 146zM307 578q0 -20 -14.5 -34t-33.5 -14t-33.5 14t-14.5 34t14 34t34 14t34 -14t14 -34z"/>
<glyph glyph-name="Gcommaaccent" horiz-adv-x="610" unicode="Ģ" d="M498 235h-147v68h222v-42q0 -122 -70.5 -196t-183.5 -74q-122 0 -202 87t-80 229q0 141 80 228.5t200 87.5q96 0 159.5 -51t82.5 -138h-79q-43 118 -163 118q-90 0 -145.5 -67.5t-55.5 -177.5t56 -178t147 -68q79 0 125.5 46.5t53.5 127.5zM271 -201l39 64q-18 2 -29 14 t-11 30q0 21 14.5 34.5t35.5 13.5t35 -14t14 -36q0 -23 -22 -57l-29 -49h-47z"/>
<glyph glyph-name="gcommaaccent" horiz-adv-x="501" unicode="ģ" d="M358 140v177q-38 69 -113 69q-62 0 -97.5 -44t-35.5 -114t35.5 -113.5t97.5 -43.5q75 0 113 69zM358 30v33q-18 -25 -51.5 -42.5t-72.5 -17.5q-93 0 -146 66t-53 159q0 94 53 159.5t146 65.5q39 0 72.5 -17t51.5 -42v50h76v-409q0 -106 -54.5 -160.5t-143.5 -54.5 q-80 0 -129.5 39t-60.5 108h74q19 -83 116 -83q122 0 122 146zM307 680l-40 -65q18 -2 29.5 -14.5t11.5 -31.5q0 -21 -14.5 -34.5t-36.5 -13.5q-21 0 -35.5 14t-14.5 37q0 26 22 59l29 49h49z"/>
<glyph glyph-name="Hcircumflex" horiz-adv-x="651" unicode="Ĥ" d="M360 791l92 -122h-68l-59 71l-59 -71h-68l92 122h70zM499 614h79v-614h-79v280h-347v-280h-79v614h79v-263h347v263z"/>
<glyph glyph-name="hcircumflex" horiz-adv-x="489" unicode="ĥ" d="M282 804l92 -122h-68l-59 71l-59 -71h-68l92 122h70zM67 0v650h75v-262q21 28 55.5 46.5t75.5 18.5q74 0 115 -44t41 -118v-291h-76v279q0 48 -24.5 76.5t-73.5 28.5q-39 0 -70 -23.5t-43 -59.5v-301h-75z"/>
<glyph glyph-name="Hbar" horiz-adv-x="679" unicode="Ħ" d="M166 310h347v120h-347v-120zM32 430v66h55v118h79v-118h347v118h79v-118h55v-66h-55v-430h-79v244h-347v-244h-79v430h-55z"/>
<glyph glyph-name="hbar" horiz-adv-x="489" unicode="ħ" d="M10 511v54h57v85h75v-85h108v-54h-108v-123q21 28 55.5 46.5t75.5 18.5q74 0 115 -44t41 -118v-291h-76v279q0 48 -24.5 76.5t-73.5 28.5q-39 0 -70 -23.5t-43 -59.5v-301h-75v511h-57z"/>
<glyph glyph-name="Itilde" horiz-adv-x="225" unicode="Ĩ" d="M199 784h48q0 -55 -19.5 -87t-56.5 -32q-26 0 -60 28t-50 28q-34 0 -34 -53h-49q0 55 19.5 87t56.5 32q27 0 60.5 -28t50.5 -28q32 0 34 53zM152 614v-614h-79v614h79z"/>
<glyph glyph-name="itilde" d="M142 444v-444h-75v444h75zM168 633h46q0 -54 -17 -86t-47 -32q-21 0 -47.5 28t-36.5 28q-25 0 -27 -53h-46q0 54 17 86t47 32q21 0 48 -28t37 -28q24 0 26 53z" unicode="ĩ"/>
<glyph glyph-name="Imacron" horiz-adv-x="225" unicode="Ī" d="M6 671v61h213v-61h-213zM152 614v-614h-79v614h79z"/>
<glyph glyph-name="imacron" d="M16 530v61h177v-61h-177zM142 444v-444h-75v444h75z" unicode="ī"/>
<glyph glyph-name="Ibreve" horiz-adv-x="225" unicode="Ĭ" d="M112 666q-52 0 -83.5 31.5t-31.5 88.5h57q0 -31 16 -47.5t42 -16.5q27 0 43 16.5t16 47.5h57q0 -58 -31 -89t-85 -31zM152 614v-614h-79v614h79z"/>
<glyph glyph-name="ibreve" d="M142 444v-444h-75v444h75zM105 500q-46 0 -74 33.5t-28 94.5h55q0 -73 47 -73q46 0 46 73h55q0 -61 -27.5 -94.5t-73.5 -33.5z" unicode="ĭ"/>
<glyph glyph-name="Iogonek" horiz-adv-x="225" unicode="Į" d="M152 614v-614q-32 -52 -41 -70.5t-9 -35.5q0 -26 23 -26q16 0 37 15v-50q-24 -19 -52 -19q-32 0 -49 17.5t-17 48.5q0 18 7.5 38.5t16 34.5t28.5 47h-23v614h79z"/>
<glyph glyph-name="iogonek" d="M153 578q0 -20 -14.5 -34t-34.5 -14t-34 14t-14 34t14 34t34 14t34.5 -14t14.5 -34zM142 444v-444q-32 -53 -40.5 -71t-8.5 -35q0 -26 23 -26q14 0 37 15v-50q-26 -19 -52 -19q-32 0 -49.5 17.5t-17.5 48.5q0 18 7.5 38.5t16 34.5t28.5 47h-19v444h75z" unicode="į"/>
<glyph glyph-name="Idotaccent" horiz-adv-x="225" unicode="İ" d="M160 721q0 -19 -14 -33.5t-34 -14.5t-34 14.5t-14 33.5q0 20 14 34.5t34 14.5t34 -14.5t14 -34.5zM152 614v-614h-79v614h79z"/>
<glyph glyph-name="dotlessi" d="M142 444v-444h-75v444h75z" unicode="ı"/>
<glyph glyph-name="IJ" horiz-adv-x="668" unicode="Ĳ" d="M152 614v-614h-79v614h79zM206 174h82q6 -52 36.5 -81.5t81.5 -29.5q122 0 122 141v410h79v-410q0 -104 -54 -158.5t-145 -54.5q-89 0 -142 50t-60 133z"/>
<glyph glyph-name="ij" horiz-adv-x="416" unicode="ĳ" d="M362 578q0 -20 -14.5 -34t-34.5 -14q-19 0 -33.5 14t-14.5 34t14 34t34 14t34.5 -14t14.5 -34zM351 444v-495q0 -62 -33.5 -95t-95.5 -33q-21 0 -32 4v64q18 -3 26 -3q60 0 60 68v490h75zM153 578q0 -20 -14.5 -34t-34.5 -14t-34 14t-14 34t14 34t34 14t34.5 -14 t14.5 -34zM142 444v-444h-75v444h75z"/>
<glyph glyph-name="Jcircumflex" horiz-adv-x="479" unicode="Ĵ" d="M414 791l92 -122h-68l-59 71l-59 -71h-68l92 122h70zM17 174h81q6 -52 37 -81.5t82 -29.5q122 0 122 141v410h79v-410q0 -104 -54.5 -158.5t-145.5 -54.5q-89 0 -142 50t-59 133z"/>
<glyph glyph-name="jcircumflex" horiz-adv-x="207" unicode="ĵ" d="M142 444v-495q0 -62 -33.5 -95t-95.5 -33q-21 0 -32 4v64q18 -3 26 -3q60 0 60 68v490h75zM139 645l74 -136h-64l-45 85l-45 -85h-63l74 136h69z"/>
<glyph glyph-name="Kcommaaccent" horiz-adv-x="564" unicode="Ķ" d="M152 614v-307l286 307h100l-263 -280l272 -334h-98l-231 280l-66 -71v-209h-79v614h79zM216 -201l39 64q-18 2 -29 14t-11 30q0 21 14.5 34.5t35.5 13.5t35 -14t14 -36q0 -23 -22 -57l-29 -49h-47z"/>
<glyph glyph-name="kcommaaccent" horiz-adv-x="464" unicode="ķ" d="M359 0l-169 205l-48 -46v-159h-75v650h75v-403l203 197h99l-200 -192l207 -252h-92zM179 -201l39 64q-18 2 -29 14t-11 30q0 21 14.5 34.5t35.5 13.5t35 -14t14 -36q0 -23 -22 -57l-29 -49h-47z"/>
<glyph glyph-name="kgreenlandic" horiz-adv-x="464" unicode="ĸ" d="M359 0l-169 205l-48 -46v-159h-75v444h75v-197l203 197h99l-200 -192l207 -252h-92z"/>
<glyph glyph-name="Lacute" horiz-adv-x="504" unicode="Ĺ" d="M73 0v614h79v-543h313v-71h-392zM156 668h-76l80 117h87z"/>
<glyph glyph-name="lacute" d="M142 650v-650h-75v650h75zM142 695h-76l80 117h87z" unicode="ĺ"/>
<glyph glyph-name="Lcommaaccent" horiz-adv-x="504" unicode="Ļ" d="M73 0v614h79v-543h313v-71h-392zM231 -201l39 64q-18 2 -29 14t-11 30q0 21 14.5 34.5t35.5 13.5t35 -14t14 -36q0 -23 -22 -57l-29 -49h-47z"/>
<glyph glyph-name="lcommaaccent" d="M142 650v-650h-75v650h75zM56 -201l39 64q-18 2 -29 14t-11 30q0 21 14.5 34.5t35.5 13.5t35 -14t14 -36q0 -23 -22 -57l-29 -49h-47z" unicode="ļ"/>
<glyph glyph-name="Lcaron" horiz-adv-x="504" unicode="Ľ" d="M73 0v614h79v-543h313v-71h-392zM321 450h-60l33 164h60z"/>
<glyph glyph-name="lcaron" d="M142 650v-650h-75v650h75zM256 486h-60l33 164h60z" unicode="ľ"/>
<glyph glyph-name="Ldot" horiz-adv-x="504" unicode="Ŀ" d="M412 307q0 -19 -14 -33.5t-34 -14.5t-34 14.5t-14 33.5q0 20 14 34t34 14t34 -14t14 -34zM73 0v614h79v-543h313v-71h-392z"/>
<glyph glyph-name="ldot" horiz-adv-x="332" unicode="ŀ" d="M317 325q0 -19 -14.5 -33.5t-33.5 -14.5t-33.5 14.5t-14.5 33.5q0 20 14 34t34 14t34 -14t14 -34zM142 650v-650h-75v650h75z"/>
<glyph glyph-name="Lslash" horiz-adv-x="523" unicode="Ł" d="M30 226v73l62 25v290h79v-260l154 62v-72l-154 -63v-210h313v-71h-392v251z"/>
<glyph glyph-name="lslash" horiz-adv-x="246" unicode="ł" d="M161 650v-236l60 39v-68l-60 -39v-346h-75v310l-56 -35v67l56 36v272h75z"/>
<glyph glyph-name="Nacute" horiz-adv-x="623" unicode="Ń" d="M550 614v-614h-58l-343 488v-488h-76v614h75l327 -467v467h75zM343 668h-76l80 117h87z"/>
<glyph glyph-name="nacute" horiz-adv-x="489" unicode="ń" d="M67 0v444h75v-56q21 28 55.5 46.5t75.5 18.5q74 0 115 -44t41 -118v-291h-76v279q0 48 -24.5 76.5t-73.5 28.5q-39 0 -70 -23.5t-43 -59.5v-301h-75zM280 516h-69l80 134h78z"/>
<glyph glyph-name="Ncommaaccent" horiz-adv-x="623" unicode="Ņ" d="M550 614v-614h-58l-343 488v-488h-76v614h75l327 -467v467h75zM266 -201l39 64q-18 2 -29 14t-11 30q0 21 14.5 34.5t35.5 13.5t35 -14t14 -36q0 -23 -22 -57l-29 -49h-47z"/>
<glyph glyph-name="ncommaaccent" horiz-adv-x="489" unicode="ņ" d="M67 0v444h75v-56q21 28 55.5 46.5t75.5 18.5q74 0 115 -44t41 -118v-291h-76v279q0 48 -24.5 76.5t-73.5 28.5q-39 0 -70 -23.5t-43 -59.5v-301h-75zM205 -201l39 64q-18 2 -29 14t-11 30q0 21 14.5 34.5t35.5 13.5t35 -14t14 -36q0 -23 -22 -57l-29 -49h-47z"/>
<glyph glyph-name="Ncaron" horiz-adv-x="623" unicode="Ň" d="M550 614v-614h-58l-343 488v-488h-76v614h75l327 -467v467h75zM277 666l-92 121h68l59 -71l59 71h68l-92 -121h-70z"/>
<glyph glyph-name="ncaron" horiz-adv-x="489" unicode="ň" d="M67 0v444h75v-56q21 28 55.5 46.5t75.5 18.5q74 0 115 -44t41 -118v-291h-76v279q0 48 -24.5 76.5t-73.5 28.5q-39 0 -70 -23.5t-43 -59.5v-301h-75zM378 646l-92 -136h-70l-92 136h65l62 -87l62 87h65z"/>
<glyph glyph-name="Eng" horiz-adv-x="623" unicode="Ŋ" d="M266 -159v78q50 -33 102 -33q55 0 80.5 32t26.5 107l-326 463v-488h-76v614h75l327 -467v467h75v-587q0 -214 -178 -214q-54 0 -106 28z"/>
<glyph glyph-name="eng" horiz-adv-x="489" unicode="ŋ" d="M353 -46v325q0 48 -24.5 76.5t-73.5 28.5q-39 0 -70 -23.5t-43 -59.5v-301h-75v444h75v-56q21 28 55.5 46.5t75.5 18.5q74 0 115 -44t41 -118v-342q0 -62 -33.5 -95t-95.5 -33q-23 0 -32 4v64q18 -3 25 -3q60 0 60 68z"/>
<glyph glyph-name="Omacron" horiz-adv-x="629" unicode="Ō" d="M513 307q0 108 -55 176.5t-144 68.5q-88 0 -143 -68.5t-55 -176.5t55 -176.5t143 -68.5q89 0 144 68.5t55 176.5zM592 307q0 -139 -78 -227.5t-200 -88.5q-121 0 -199 88.5t-78 227.5t78 227.5t199 88.5q122 0 200 -88.5t78 -227.5zM208 671v61h213v-61h-213z"/>
<glyph glyph-name="omacron" horiz-adv-x="478" unicode="ō" d="M367 222q0 74 -34.5 119.5t-93.5 45.5t-93.5 -45.5t-34.5 -119.5t34.5 -119.5t93.5 -45.5t93.5 45.5t34.5 119.5zM443 222q0 -102 -56.5 -166.5t-147.5 -64.5t-147.5 64.5t-56.5 166.5t56.5 166.5t147.5 64.5t147.5 -64.5t56.5 -166.5zM133 530v61h213v-61h-213z"/>
<glyph glyph-name="Obreve" horiz-adv-x="629" unicode="Ŏ" d="M513 307q0 108 -55 176.5t-144 68.5q-88 0 -143 -68.5t-55 -176.5t55 -176.5t143 -68.5q89 0 144 68.5t55 176.5zM592 307q0 -139 -78 -227.5t-200 -88.5q-121 0 -199 88.5t-78 227.5t78 227.5t199 88.5q122 0 200 -88.5t78 -227.5zM314 666q-52 0 -83.5 31.5t-31.5 88.5 h57q0 -31 16 -47.5t42 -16.5q27 0 43 16.5t16 47.5h57q0 -58 -31 -89t-85 -31z"/>
<glyph glyph-name="obreve" horiz-adv-x="478" unicode="ŏ" d="M239 500q-52 0 -83 33.5t-31 94.5h57q0 -34 15 -53.5t42 -19.5t42 19.5t15 53.5h57q0 -61 -31 -94.5t-83 -33.5zM367 222q0 74 -34.5 119.5t-93.5 45.5t-93.5 -45.5t-34.5 -119.5t34.5 -119.5t93.5 -45.5t93.5 45.5t34.5 119.5zM443 222q0 -102 -56.5 -166.5 t-147.5 -64.5t-147.5 64.5t-56.5 166.5t56.5 166.5t147.5 64.5t147.5 -64.5t56.5 -166.5z"/>
<glyph glyph-name="Ohungarumlaut" horiz-adv-x="629" unicode="Ő" d="M413 668h-65l66 117h67zM290 668h-65l67 117h66zM513 307q0 108 -55 176.5t-144 68.5q-88 0 -143 -68.5t-55 -176.5t55 -176.5t143 -68.5q89 0 144 68.5t55 176.5zM592 307q0 -139 -78 -227.5t-200 -88.5q-121 0 -199 88.5t-78 227.5t78 227.5t199 88.5q122 0 200 -88.5 t78 -227.5z"/>
<glyph glyph-name="ohungarumlaut" horiz-adv-x="478" unicode="ő" d="M367 222q0 74 -34.5 119.5t-93.5 45.5t-93.5 -45.5t-34.5 -119.5t34.5 -119.5t93.5 -45.5t93.5 45.5t34.5 119.5zM443 222q0 -102 -56.5 -166.5t-147.5 -64.5t-147.5 64.5t-56.5 166.5t56.5 166.5t147.5 64.5t147.5 -64.5t56.5 -166.5zM326 516h-63l67 134h64zM207 516 h-63l66 134h65z"/>
<glyph glyph-name="OE" horiz-adv-x="830" unicode="Œ" d="M337 71h68v473h-68q-104 0 -162.5 -64t-58.5 -173t58.5 -172.5t162.5 -63.5zM780 614v-70h-298v-194h268v-70h-268v-209h298v-71h-445q-135 0 -216.5 83.5t-81.5 223.5t81.5 223.5t216.5 83.5h445z"/>
<glyph glyph-name="oe" horiz-adv-x="787" unicode="œ" d="M567 389q-50 0 -83.5 -33t-41.5 -91h236q-2 53 -30 88.5t-81 35.5zM367 222q0 74 -34.5 119.5t-93.5 45.5t-93.5 -45.5t-34.5 -119.5t34.5 -119.5t93.5 -45.5t93.5 45.5t34.5 119.5zM568 -9q-110 0 -166 91q-54 -91 -163 -91q-91 0 -147.5 64.5t-56.5 166.5t56.5 166.5 t147.5 64.5q109 0 163 -93q57 93 165 93q89 0 138 -59.5t49 -158.5v-27h-315q1 -70 37 -111.5t92 -41.5q42 0 71 20.5t38 57.5h71q-12 -65 -59 -103.5t-121 -38.5z"/>
<glyph glyph-name="Racute" horiz-adv-x="552" unicode="Ŕ" d="M303 668h-76l80 117h87zM152 545v-218h147q60 0 92.5 29t32.5 80t-32.5 80t-92.5 29h-147zM261 260h-109v-260h-79v614h228q94 0 147.5 -46t53.5 -132q0 -75 -41 -119t-115 -54l181 -263h-90z"/>
<glyph glyph-name="racute" horiz-adv-x="321" unicode="ŕ" d="M295 446v-77q-18 12 -50 12q-36 0 -64 -22t-39 -61v-298h-75v444h75v-58q15 29 44.5 48t65.5 19q29 0 43 -7zM210 516h-69l80 134h78z"/>
<glyph glyph-name="Rcommaaccent" horiz-adv-x="552" unicode="Ŗ" d="M225 -201l39 64q-18 2 -29 14t-11 30q0 21 14.5 34.5t35.5 13.5t35 -14t14 -36q0 -23 -22 -57l-29 -49h-47zM152 545v-218h147q60 0 92.5 29t32.5 80t-32.5 80t-92.5 29h-147zM261 260h-109v-260h-79v614h228q94 0 147.5 -46t53.5 -132q0 -75 -41 -119t-115 -54l181 -263 h-90z"/>
<glyph glyph-name="rcommaaccent" horiz-adv-x="321" unicode="ŗ" d="M295 446v-77q-18 12 -50 12q-36 0 -64 -22t-39 -61v-298h-75v444h75v-58q15 29 44.5 48t65.5 19q29 0 43 -7zM54 -201l39 64q-18 2 -29 14t-11 30q0 21 14.5 34.5t35.5 13.5t35 -14t14 -36q0 -23 -22 -57l-29 -49h-47z"/>
<glyph glyph-name="Rcaron" horiz-adv-x="552" unicode="Ř" d="M236 666l-92 121h68l59 -71l59 71h68l-92 -121h-70zM152 545v-218h147q60 0 92.5 29t32.5 80t-32.5 80t-92.5 29h-147zM261 260h-109v-260h-79v614h228q94 0 147.5 -46t53.5 -132q0 -75 -41 -119t-115 -54l181 -263h-90z"/>
<glyph glyph-name="rcaron" horiz-adv-x="321" unicode="ř" d="M295 446v-77q-18 12 -50 12q-36 0 -64 -22t-39 -61v-298h-75v444h75v-58q15 29 44.5 48t65.5 19q29 0 43 -7zM308 646l-92 -136h-70l-92 136h65l62 -87l62 87h65z"/>
<glyph glyph-name="Sacute" horiz-adv-x="509" unicode="Ś" d="M279 668h-76l80 117h87zM23 160h80q35 -102 156 -102q61 0 98.5 28.5t37.5 78.5q0 37 -23 60.5t-75 36.5l-110 29q-147 38 -147 158q0 77 57 125.5t145 48.5q93 0 150 -43.5t75 -118.5h-79q-33 95 -146 95q-56 0 -91.5 -27.5t-35.5 -73.5q0 -38 24 -59.5t74 -34.5 l105 -27q153 -39 153 -165q0 -82 -59.5 -130t-152.5 -48t-156 44.5t-80 124.5z"/>
<glyph glyph-name="sacute" horiz-adv-x="414" unicode="ś" d="M30 122h78q21 -68 105 -68q41 0 66 16.5t25 49.5q0 45 -66 62l-88 23q-107 27 -107 117q0 58 45 94.5t114 36.5q72 0 116 -33t56 -93h-75q-20 63 -98 63q-35 0 -60 -16.5t-25 -47.5q0 -22 14.5 -34.5t47.5 -21.5l86 -21q113 -30 113 -124q0 -62 -46 -98t-119 -36 t-122.5 35t-59.5 96zM236 516h-69l80 134h78z"/>
<glyph glyph-name="Scircumflex" horiz-adv-x="509" unicode="Ŝ" d="M286 791l92 -122h-68l-59 71l-59 -71h-68l92 122h70zM23 160h80q35 -102 156 -102q61 0 98.5 28.5t37.5 78.5q0 37 -23 60.5t-75 36.5l-110 29q-147 38 -147 158q0 77 57 125.5t145 48.5q93 0 150 -43.5t75 -118.5h-79q-33 95 -146 95q-56 0 -91.5 -27.5t-35.5 -73.5 q0 -38 24 -59.5t74 -34.5l105 -27q153 -39 153 -165q0 -82 -59.5 -130t-152.5 -48t-156 44.5t-80 124.5z"/>
<glyph glyph-name="scircumflex" horiz-adv-x="414" unicode="ŝ" d="M30 122h78q21 -68 105 -68q41 0 66 16.5t25 49.5q0 45 -66 62l-88 23q-107 27 -107 117q0 58 45 94.5t114 36.5q72 0 116 -33t56 -93h-75q-20 63 -98 63q-35 0 -60 -16.5t-25 -47.5q0 -22 14.5 -34.5t47.5 -21.5l86 -21q113 -30 113 -124q0 -62 -46 -98t-119 -36 t-122.5 35t-59.5 96zM242 645l92 -136h-65l-62 88l-62 -88h-65l92 136h70z"/>
<glyph glyph-name="Scedilla" horiz-adv-x="509" unicode="Ş" d="M219 -183h-71l66 132h74zM23 160h80q35 -102 156 -102q61 0 98.5 28.5t37.5 78.5q0 37 -23 60.5t-75 36.5l-110 29q-147 38 -147 158q0 77 57 125.5t145 48.5q93 0 150 -43.5t75 -118.5h-79q-33 95 -146 95q-56 0 -91.5 -27.5t-35.5 -73.5q0 -38 24 -59.5t74 -34.5 l105 -27q153 -39 153 -165q0 -82 -59.5 -130t-152.5 -48t-156 44.5t-80 124.5z"/>
<glyph glyph-name="scedilla" horiz-adv-x="414" unicode="ş" d="M179 -183h-71l66 132h74zM30 122h78q21 -68 105 -68q41 0 66 16.5t25 49.5q0 45 -66 62l-88 23q-107 27 -107 117q0 58 45 94.5t114 36.5q72 0 116 -33t56 -93h-75q-20 63 -98 63q-35 0 -60 -16.5t-25 -47.5q0 -22 14.5 -34.5t47.5 -21.5l86 -21q113 -30 113 -124 q0 -62 -46 -98t-119 -36t-122.5 35t-59.5 96z"/>
<glyph glyph-name="Scaron" horiz-adv-x="509" unicode="Š" d="M23 160h80q35 -102 156 -102q61 0 98.5 28.5t37.5 78.5q0 37 -23 60.5t-75 36.5l-110 29q-147 38 -147 158q0 77 57 125.5t145 48.5q93 0 150 -43.5t75 -118.5h-79q-33 95 -146 95q-56 0 -91.5 -27.5t-35.5 -73.5q0 -38 24 -59.5t74 -34.5l105 -27q153 -39 153 -165 q0 -82 -59.5 -130t-152.5 -48t-156 44.5t-80 124.5zM216 666l-92 121h68l59 -71l59 71h68l-92 -121h-70z"/>
<glyph glyph-name="scaron" horiz-adv-x="414" unicode="š" d="M30 122h78q21 -68 105 -68q41 0 66 16.5t25 49.5q0 45 -66 62l-88 23q-107 27 -107 117q0 58 45 94.5t114 36.5q72 0 116 -33t56 -93h-75q-20 63 -98 63q-35 0 -60 -16.5t-25 -47.5q0 -22 14.5 -34.5t47.5 -21.5l86 -21q113 -30 113 -124q0 -62 -46 -98t-119 -36 t-122.5 35t-59.5 96zM334 646l-92 -136h-70l-92 136h65l62 -87l62 87h65z"/>
<glyph glyph-name="Tcedilla" horiz-adv-x="567" unicode="Ţ" d="M30 544v70h507v-70h-214v-544h-79v544h-214zM238 -201l39 64q-18 2 -29 14t-11 30q0 21 14.5 34.5t35.5 13.5t35 -14t14 -36q0 -23 -22 -57l-29 -49h-47z"/>
<glyph glyph-name="tcedilla" horiz-adv-x="317" unicode="ţ" d="M139 -201l39 64q-18 2 -29 14t-11 30q0 21 14.5 34.5t35.5 13.5t35 -14t14 -36q0 -23 -22 -57l-29 -49h-47zM88 112v268h-72v64h72v117h75v-117h107v-64h-107v-260q0 -62 59 -62q31 0 58 18v-70q-28 -15 -70 -15q-56 0 -89 30.5t-33 90.5z"/>
<glyph glyph-name="Tcaron" horiz-adv-x="567" unicode="Ť" d="M30 544v70h507v-70h-214v-544h-79v544h-214zM249 666l-92 121h68l59 -71l59 71h68l-92 -121h-70z"/>
<glyph glyph-name="tcaron" horiz-adv-x="317" unicode="ť" d="M276 496h-60l33 164h60zM88 112v268h-72v64h72v117h75v-117h107v-64h-107v-260q0 -62 59 -62q31 0 58 18v-70q-28 -15 -70 -15q-56 0 -89 30.5t-33 90.5z"/>
<glyph glyph-name="Tbar" horiz-adv-x="567" unicode="Ŧ" d="M30 544v70h507v-70h-214v-193h113v-67h-113v-284h-79v284h-113v67h113v193h-214z"/>
<glyph glyph-name="tbar" horiz-adv-x="321" unicode="ŧ" d="M29 219v61h63v100h-72v64h72v117h75v-117h107v-64h-107v-100h91v-61h-91v-99q0 -62 59 -62q31 0 58 18v-70q-28 -15 -70 -15q-57 0 -89.5 30.5t-32.5 90.5v107h-63z"/>
<glyph glyph-name="Utilde" horiz-adv-x="607" unicode="Ũ" d="M303 -9q-108 0 -174 65t-66 188v370h78v-361q0 -96 43 -144t119 -48t119 48t43 144v361h79v-371q0 -122 -66 -187t-175 -65zM390 784h48q0 -55 -19.5 -87t-56.5 -32q-26 0 -60 28t-50 28q-34 0 -34 -53h-49q0 55 19.5 87t56.5 32q27 0 60.5 -28t50.5 -28q32 0 34 53z"/>
<glyph glyph-name="utilde" horiz-adv-x="487" unicode="ũ" d="M327 633h48q0 -54 -19.5 -86t-56.5 -32q-25 0 -57.5 29t-46.5 29q-34 0 -34 -55h-48q0 54 19.5 86t56.5 32q25 0 57.5 -29t46.5 -29q32 0 34 55zM421 444v-444h-76v56q-20 -28 -54 -46.5t-75 -18.5q-74 0 -114.5 44t-40.5 118v291h76v-279q0 -49 24 -77t73 -28 q38 0 68.5 23t42.5 60v301h76z"/>
<glyph glyph-name="Umacron" horiz-adv-x="607" unicode="Ū" d="M303 -9q-108 0 -174 65t-66 188v370h78v-361q0 -96 43 -144t119 -48t119 48t43 144v361h79v-371q0 -122 -66 -187t-175 -65zM197 671v61h213v-61h-213z"/>
<glyph glyph-name="umacron" horiz-adv-x="487" unicode="ū" d="M137 530v61h213v-61h-213zM421 444v-444h-76v56q-20 -28 -54 -46.5t-75 -18.5q-74 0 -114.5 44t-40.5 118v291h76v-279q0 -49 24 -77t73 -28q38 0 68.5 23t42.5 60v301h76z"/>
<glyph glyph-name="Ubreve" horiz-adv-x="607" unicode="Ŭ" d="M303 -9q-108 0 -174 65t-66 188v370h78v-361q0 -96 43 -144t119 -48t119 48t43 144v361h79v-371q0 -122 -66 -187t-175 -65zM303 666q-52 0 -83.5 31.5t-31.5 88.5h57q0 -31 16 -47.5t42 -16.5q27 0 43 16.5t16 47.5h57q0 -58 -31.5 -89t-84.5 -31z"/>
<glyph glyph-name="ubreve" horiz-adv-x="487" unicode="ŭ" d="M243 500q-52 0 -83 33.5t-31 94.5h57q0 -34 15 -53.5t42 -19.5t42 19.5t15 53.5h57q0 -61 -31 -94.5t-83 -33.5zM421 444v-444h-76v56q-20 -28 -54 -46.5t-75 -18.5q-74 0 -114.5 44t-40.5 118v291h76v-279q0 -49 24 -77t73 -28q38 0 68.5 23t42.5 60v301h76z"/>
<glyph glyph-name="Uring" horiz-adv-x="607" unicode="Ů" d="M348 734q0 19 -13 32.5t-32 13.5t-32 -13.5t-13 -32.5t13 -32t32 -13t32 13t13 32zM390 734q0 -36 -25 -61t-62 -25t-62 25t-25 61q0 37 25 62t62 25t62 -25t25 -62zM303 -9q-108 0 -174 65t-66 188v370h78v-361q0 -96 43 -144t119 -48t119 48t43 144v361h79v-371 q0 -122 -66 -187t-175 -65z"/>
<glyph glyph-name="uring" horiz-adv-x="487" unicode="ů" d="M421 444v-444h-76v56q-20 -28 -54 -46.5t-75 -18.5q-74 0 -114.5 44t-40.5 118v291h76v-279q0 -49 24 -77t73 -28q38 0 68.5 23t42.5 60v301h76zM288 580q0 19 -13 32t-32 13t-32 -13t-13 -32t13 -32t32 -13t32 13t13 32zM330 580q0 -37 -25 -61.5t-62 -24.5t-62 24.5 t-25 61.5t25 61.5t62 24.5t62 -24.5t25 -61.5z"/>
<glyph glyph-name="Uhungarumlaut" horiz-adv-x="607" unicode="Ű" d="M402 668h-65l66 117h67zM279 668h-65l67 117h66zM303 -9q-108 0 -174 65t-66 188v370h78v-361q0 -96 43 -144t119 -48t119 48t43 144v361h79v-371q0 -122 -66 -187t-175 -65z"/>
<glyph glyph-name="uhungarumlaut" horiz-adv-x="487" unicode="ű" d="M331 516h-63l67 134h64zM212 516h-63l66 134h65zM421 444v-444h-76v56q-20 -28 -54 -46.5t-75 -18.5q-74 0 -114.5 44t-40.5 118v291h76v-279q0 -49 24 -77t73 -28q38 0 68.5 23t42.5 60v301h76z"/>
<glyph glyph-name="Uogonek" horiz-adv-x="607" unicode="Ų" d="M303 -9q-108 0 -174 65t-66 188v370h78v-361q0 -96 43 -144t119 -48t119 48t43 144v361h79v-371q0 -80 -27 -131.5t-82 -90.5q-92 -65 -92 -127q0 -26 23 -26q15 0 37 15v-50q-26 -19 -52 -19q-32 0 -49.5 18t-17.5 49q0 59 57 113q-12 -3 -38 -3z"/>
<glyph glyph-name="uogonek" horiz-adv-x="487" unicode="ų" d="M421 444v-444q-32 -53 -40.5 -71t-8.5 -35q0 -26 22 -26q16 0 37 15v-50q-24 -19 -52 -19q-32 0 -49 17.5t-17 48.5q0 18 7.5 38.5t16 34.5t28.5 47h-20v56q-20 -28 -54 -46.5t-75 -18.5q-74 0 -114.5 44t-40.5 118v291h76v-279q0 -49 24 -77t73 -28q38 0 68.5 23 t42.5 60v301h76z"/>
<glyph glyph-name="Wcircumflex" horiz-adv-x="767" unicode="Ŵ" d="M418 791l92 -122h-68l-59 71l-59 -71h-68l92 122h70zM353 614h63l130 -488l126 488h76l-163 -614h-72l-129 479l-131 -479h-71l-163 614h78l126 -488z"/>
<glyph glyph-name="wcircumflex" horiz-adv-x="629" unicode="ŵ" d="M349 444l91 -339l98 339h73l-131 -444h-73l-92 337l-93 -337h-73l-131 444h75l98 -339l91 339h67zM350 645l92 -136h-65l-62 88l-62 -88h-65l92 136h70z"/>
<glyph glyph-name="Ycircumflex" horiz-adv-x="557" unicode="Ŷ" d="M314 791l92 -122h-68l-59 71l-59 -71h-68l92 122h70zM280 324l177 290h84l-224 -361v-253h-78v253l-222 361h86z"/>
<glyph glyph-name="ycircumflex" horiz-adv-x="455" unicode="ŷ" d="M263 645l92 -136h-65l-62 88l-62 -88h-65l92 136h70zM198 -170h-74l67 167l-173 447h81l131 -350l129 350h78z"/>
<glyph glyph-name="Ydieresis" horiz-adv-x="557" unicode="Ÿ" d="M303 722q0 19 13 32.5t32 13.5q20 0 33.5 -13.5t13.5 -32.5t-13.5 -32.5t-33.5 -13.5q-19 0 -32 13.5t-13 32.5zM162 722q0 19 13.5 32.5t33.5 13.5q19 0 32.5 -13.5t13.5 -32.5t-13.5 -32.5t-32.5 -13.5q-20 0 -33.5 13.5t-13.5 32.5zM280 324l177 290h84l-224 -361 v-253h-78v253l-222 361h86z"/>
<glyph glyph-name="Zacute" horiz-adv-x="534" unicode="Ź" d="M319 668h-76l80 117h87zM492 71v-71h-451v57l349 487h-344v70h442v-56l-348 -487h352z"/>
<glyph glyph-name="zacute" horiz-adv-x="434" unicode="ź" d="M390 64v-64h-349v49l249 331h-241v64h337v-49l-247 -331h251zM253 516h-69l80 134h78z"/>
<glyph glyph-name="Zdotaccent" horiz-adv-x="534" unicode="Ż" d="M492 71v-71h-451v57l349 487h-344v70h442v-56l-348 -487h352zM335 721q0 -19 -14.5 -33.5t-33.5 -14.5t-33.5 14.5t-14.5 33.5q0 20 14 34.5t34 14.5t34 -14.5t14 -34.5z"/>
<glyph glyph-name="zdotaccent" horiz-adv-x="434" unicode="ż" d="M272 578q0 -20 -14 -34t-34 -14t-34 14t-14 34t14 34t34 14t34 -14t14 -34zM390 64v-64h-349v49l249 331h-241v64h337v-49l-247 -331h251z"/>
<glyph glyph-name="Zcaron" horiz-adv-x="534" unicode="Ž" d="M492 71v-71h-451v57l349 487h-344v70h442v-56l-348 -487h352zM252 666l-92 121h68l59 -71l59 71h68l-92 -121h-70z"/>
<glyph glyph-name="zcaron" horiz-adv-x="434" unicode="ž" d="M390 64v-64h-349v49l249 331h-241v64h337v-49l-247 -331h251zM351 646l-92 -136h-70l-92 136h65l62 -87l62 87h65z"/>
<glyph glyph-name="florin" horiz-adv-x="405" unicode="ƒ" d="M68 281v63h82l25 138q12 67 52.5 104t102.5 37q36 0 61 -12v-68q-26 14 -60 14q-32 0 -53.5 -21t-28.5 -60l-24 -132h97v-63h-108l-56 -320q-12 -68 -45 -103t-95 -35q-34 0 -60 12v68q26 -14 59 -14q31 0 45.5 19t21.5 59l55 314h-71z"/>
<glyph glyph-name="Aringacute" horiz-adv-x="596" unicode="Ǻ" d="M344 711q0 16 -13.5 26t-33.5 10q-19 0 -32.5 -10t-13.5 -26t13.5 -26t32.5 -10q20 0 33.5 10t13.5 26zM339 808h-74l55 86h86zM386 711q0 -31 -25.5 -52.5t-63.5 -21.5q-37 0 -62.5 21.5t-25.5 52.5t25.5 52.5t62.5 21.5t63 -21.5t26 -52.5zM297 516l-100 -262h200z M261 614h74l240 -614h-80l-71 185h-253l-70 -185h-80z"/>
<glyph glyph-name="aringacute" horiz-adv-x="450" unicode="ǻ" d="M317 110v46q-10 24 -39.5 39.5t-64.5 15.5q-44 0 -75 -20t-31 -57q0 -38 31 -58.5t75 -20.5q35 0 64.5 15.5t39.5 39.5zM389 0h-72v33q-14 -15 -47 -28t-70 -13q-70 0 -117.5 39t-47.5 103q0 61 49 100t121 39q33 0 65 -11t47 -25v56q0 43 -25.5 69t-72.5 26 q-70 0 -91 -61h-74q11 56 56.5 91t109.5 35q79 0 124 -42t45 -115v-296zM268 647h-74l56 86h86zM274 550q0 16 -13.5 26.5t-33.5 10.5q-19 0 -32.5 -10.5t-13.5 -26.5t13.5 -26t32.5 -10q20 0 33.5 10t13.5 26zM316 550q0 -31 -26 -52.5t-63 -21.5t-62.5 21.5t-25.5 52.5 t25.5 52.5t62.5 21.5q38 0 63.5 -21.5t25.5 -52.5z"/>
<glyph glyph-name="AEacute" horiz-adv-x="862" unicode="Ǽ" d="M620 668h-76l80 117h87zM437 550l-180 -296h180v296zM390 614h421v-70h-297v-194h268v-70h-268v-209h297v-71h-374v185h-222l-112 -185h-82z"/>
<glyph glyph-name="aeacute" horiz-adv-x="731" unicode="ǽ" d="M511 389q-50 0 -84 -33t-42 -91h237q-2 53 -30 88.5t-81 35.5zM621 133h71q-12 -65 -59.5 -103.5t-120.5 -38.5q-106 0 -161 84q-61 -83 -158 -83q-68 0 -113.5 37.5t-45.5 98.5q0 63 48.5 100.5t122.5 37.5h110v27q0 43 -25 69t-72 26q-72 0 -93 -61h-72q11 56 56.5 91 t109.5 35q108 0 144 -81q56 81 147 81q90 0 139 -59.5t49 -158.5v-27h-315q1 -71 37 -112t92 -41q42 0 71 20.5t38 57.5zM199 55q42 0 72.5 22t43.5 59v71h-105q-44 0 -74.5 -19t-30.5 -56t27 -57t67 -20zM415 516h-69l80 134h78z"/>
<glyph glyph-name="Oslashacute" horiz-adv-x="639" unicode="Ǿ" d="M351 668h-76l80 117h87zM518 307q0 93 -38 155l-282 -357q48 -43 121 -43q89 0 144 68.5t55 176.5zM121 307q0 -97 39 -158l284 357q-51 46 -125 46q-88 0 -143 -68.5t-55 -176.5zM56 18l56 71q-70 88 -70 218q0 139 78 227.5t199 88.5q97 0 170 -60l47 60l46 -33 l-54 -67q69 -86 69 -216q0 -139 -78 -227.5t-200 -88.5q-97 0 -166 57l-50 -63z"/>
<glyph glyph-name="oslashacute" horiz-adv-x="488" unicode="ǿ" d="M272 516h-69l80 134h78zM115 222q0 -58 20 -98l184 237q-31 26 -75 26q-59 0 -94 -45.5t-35 -119.5zM373 222q0 57 -22 99l-184 -238q31 -26 77 -26q59 0 94 45.5t35 119.5zM40 1l49 63q-49 61 -49 158q0 102 56.5 166.5t147.5 64.5q68 0 117 -37l42 53l41 -29l-46 -60 q50 -65 50 -158q0 -102 -56.5 -166.5t-147.5 -64.5q-70 0 -119 38l-44 -57z"/>
<glyph glyph-name="Scommaaccent" horiz-adv-x="509" unicode="Ș" d="M23 160h80q35 -102 156 -102q61 0 98.5 28.5t37.5 78.5q0 37 -23 60.5t-75 36.5l-110 29q-147 38 -147 158q0 77 57 125.5t145 48.5q93 0 150 -43.5t75 -118.5h-79q-33 95 -146 95q-56 0 -91.5 -27.5t-35.5 -73.5q0 -38 24 -59.5t74 -34.5l105 -27q153 -39 153 -165 q0 -82 -59.5 -130t-152.5 -48t-156 44.5t-80 124.5zM201 -201l39 64q-18 2 -29 14t-11 30q0 21 14.5 34.5t35.5 13.5t35 -14t14 -36q0 -23 -22 -57l-29 -49h-47z"/>
<glyph glyph-name="scommaaccent" horiz-adv-x="414" unicode="ș" d="M30 122h78q21 -68 105 -68q41 0 66 16.5t25 49.5q0 45 -66 62l-88 23q-107 27 -107 117q0 58 45 94.5t114 36.5q72 0 116 -33t56 -93h-75q-20 63 -98 63q-35 0 -60 -16.5t-25 -47.5q0 -22 14.5 -34.5t47.5 -21.5l86 -21q113 -30 113 -124q0 -62 -46 -98t-119 -36 t-122.5 35t-59.5 96zM161 -201l39 64q-18 2 -29 14t-11 30q0 21 14.5 34.5t35.5 13.5t35 -14t14 -36q0 -23 -22 -57l-29 -49h-47z"/>
<glyph glyph-name="uni0237" horiz-adv-x="207" unicode="ȷ" d="M142 444v-495q0 -62 -33.5 -95t-95.5 -33q-21 0 -32 4v64q18 -3 26 -3q60 0 60 68v490h75z"/>
</font>
</defs>
</svg>
